<svg width="473" height="473" viewBox="0 0 473 473" fill="none" xmlns="http://www.w3.org/2000/svg">
<circle cx="236.314" cy="180.418" r="89.4545" stroke="#F4F3F3"></circle>
<path d="M190.223 196.418L204.391 165.618H206.635L220.803 196.418H218.383L205.007 167.026H205.975L192.643 196.418H190.223ZM195.415 187.75L196.163 185.858H214.599L215.347 187.75H195.415ZM235.194 196.418V165.618H246.238C248.82 165.618 251.034 166.028 252.882 166.85C254.73 167.671 256.153 168.859 257.15 170.414C258.148 171.939 258.646 173.802 258.646 176.002C258.646 178.143 258.148 179.991 257.15 181.546C256.153 183.1 254.73 184.288 252.882 185.11C251.034 185.931 248.82 186.342 246.238 186.342H236.426L237.438 185.286V196.418H235.194ZM237.438 185.418L236.426 184.318H246.238C249.553 184.318 252.061 183.599 253.762 182.162C255.493 180.695 256.358 178.642 256.358 176.002C256.358 173.332 255.493 171.279 253.762 169.842C252.061 168.375 249.553 167.642 246.238 167.642H236.426L237.438 166.542V185.418ZM275.018 196.418V165.618H277.262V196.418H275.018Z" fill="#F4F3F3"></path>
<path d="M269.263 263.799V308.319L288.833 337.074V368.352" stroke="#F4F3F3"></path>
<circle cx="288.835" cy="365.258" r="8.31939" fill="#F4F3F3" stroke="#F4F3F3"></circle>
<path d="M236.957 269.872C236.957 321.146 236.957 299.298 236.957 350.572" stroke="#F4F3F3"></path>
<circle cx="236.954" cy="351.529" r="8.31939" fill="#F4F3F3" stroke="#F4F3F3"></circle>
<path d="M204.475 263.799V308.319L184.905 337.074V368.352" stroke="#F4F3F3"></path>
<circle cx="184.909" cy="372.845" r="8.31939" fill="#465CEE" stroke="#465CEE"></circle>
<path d="M293.142 249.671C293.142 282.886 293.142 268.733 293.142 301.948" stroke="#F4F3F3"></path>
<circle cx="293.144" cy="301.948" r="8.31939" fill="#465CEE" stroke="#465CEE"></circle>
<path d="M180.763 250.341C180.763 273.271 180.763 263.5 180.763 286.43" stroke="#F4F3F3"></path>
<circle cx="180.765" cy="290.36" r="8.31939" fill="#F4F3F3" stroke="#F4F3F3"></circle>
</svg>