<svg width="1202" height="898" viewBox="0 0 1202 898" fill="none" xmlns="http://www.w3.org/2000/svg">
<g clip-path="url(#clip0_1824_3831)">
<path d="M152.589 932.895C152.589 932.895 231.998 683.38 387.196 683.38C553.891 683.38 571.967 479.655 698.289 479.655C832.424 479.655 895.591 593.905 970.841 593.906C1071.81 593.908 1142.41 358.854 1212.43 371.148" stroke="#F4F3F3"></path>
<path d="M152.589 932.895C152.589 932.895 231.998 683.38 387.196 683.38C553.891 683.38 571.967 479.655 698.289 479.655C832.424 479.655 895.591 593.905 970.841 593.906C1071.81 593.908 1142.41 358.854 1212.43 371.148" stroke="url(#paint0_linear_1824_3831)"></path>
<path d="M112.792 891.837C172.499 832.316 251.794 510.908 512.82 504.979C606.823 502.844 630.782 607.902 694.914 607.902C751.678 607.902 783.721 265.976 919.214 259.886C1002.92 256.123 1078.49 62.4502 1202.07 66.0846" stroke="#465CEE"></path>
<g filter="url(#filter0_dddd_1824_3831)">
<circle cx="977.711" cy="592.578" r="11.8491" fill="#F4F3F3"></circle>
</g>
<g filter="url(#filter1_dddd_1824_3831)">
<circle cx="897.09" cy="264.011" r="11.8491" fill="#465CEE"></circle>
</g>
<g filter="url(#filter2_di_1824_3831)">
<rect x="418" y="184.5" width="428.645" height="214.401" rx="45.9613" fill="#04092D" fill-opacity="0.7" shape-rendering="crispEdges"></rect>
<rect x="419" y="185.5" width="426.645" height="212.401" rx="44.9613" stroke="url(#paint1_linear_1824_3831)" stroke-opacity="0.5" stroke-width="2" shape-rendering="crispEdges"></rect>
<path d="M479.503 266.684C477.545 266.684 475.736 266.362 474.075 265.718C472.414 265.048 470.976 264.119 469.762 262.929C468.547 261.739 467.593 260.339 466.899 258.727C466.229 257.116 465.895 255.356 465.895 253.448C465.895 251.539 466.229 249.779 466.899 248.168C467.593 246.557 468.547 245.156 469.762 243.966C471.001 242.776 472.451 241.859 474.112 241.215C475.773 240.545 477.582 240.211 479.54 240.211C481.424 240.211 483.197 240.533 484.857 241.178C486.518 241.797 487.919 242.739 489.059 244.003L487.311 245.751C486.246 244.66 485.068 243.879 483.779 243.408C482.49 242.913 481.102 242.665 479.615 242.665C478.053 242.665 476.603 242.937 475.265 243.483C473.926 244.003 472.761 244.759 471.769 245.751C470.778 246.718 469.997 247.858 469.427 249.172C468.882 250.461 468.609 251.886 468.609 253.448C468.609 255.009 468.882 256.447 469.427 257.761C469.997 259.05 470.778 260.19 471.769 261.181C472.761 262.148 473.926 262.904 475.265 263.449C476.603 263.97 478.053 264.23 479.615 264.23C481.102 264.23 482.49 263.982 483.779 263.487C485.068 262.991 486.246 262.198 487.311 261.107L489.059 262.855C487.919 264.119 486.518 265.073 484.857 265.718C483.197 266.362 481.412 266.684 479.503 266.684ZM501.089 266.647C499.205 266.647 497.507 266.226 495.995 265.383C494.508 264.515 493.33 263.338 492.463 261.851C491.595 260.339 491.162 258.616 491.162 256.682C491.162 254.724 491.595 253.001 492.463 251.514C493.33 250.027 494.508 248.862 495.995 248.019C497.482 247.176 499.18 246.755 501.089 246.755C503.023 246.755 504.733 247.176 506.22 248.019C507.732 248.862 508.91 250.027 509.752 251.514C510.62 253.001 511.054 254.724 511.054 256.682C511.054 258.616 510.62 260.339 509.752 261.851C508.91 263.338 507.732 264.515 506.22 265.383C504.708 266.226 502.998 266.647 501.089 266.647ZM501.089 264.305C502.502 264.305 503.754 263.995 504.844 263.375C505.935 262.731 506.79 261.838 507.41 260.698C508.054 259.533 508.377 258.194 508.377 256.682C508.377 255.146 508.054 253.807 507.41 252.667C506.79 251.526 505.935 250.647 504.844 250.027C503.754 249.382 502.514 249.06 501.126 249.06C499.738 249.06 498.499 249.382 497.408 250.027C496.317 250.647 495.45 251.526 494.805 252.667C494.161 253.807 493.839 255.146 493.839 256.682C493.839 258.194 494.161 259.533 494.805 260.698C495.45 261.838 496.317 262.731 497.408 263.375C498.499 263.995 499.726 264.305 501.089 264.305ZM516.443 266.461V246.941H518.972V252.295L518.563 251.291C519.182 249.878 520.174 248.775 521.537 247.982C522.901 247.164 524.524 246.755 526.408 246.755C527.995 246.755 529.383 247.065 530.573 247.684C531.787 248.279 532.729 249.196 533.398 250.436C534.092 251.675 534.439 253.237 534.439 255.121V266.461H531.8V255.381C531.8 253.324 531.279 251.774 530.238 250.733C529.222 249.667 527.784 249.134 525.925 249.134C524.537 249.134 523.322 249.42 522.281 249.99C521.265 250.535 520.471 251.341 519.901 252.406C519.356 253.448 519.083 254.712 519.083 256.199V266.461H516.443ZM546.813 266.647C545.202 266.647 543.677 266.424 542.239 265.978C540.802 265.507 539.674 264.924 538.856 264.23L540.046 262.148C540.839 262.743 541.855 263.264 543.095 263.71C544.334 264.131 545.635 264.342 546.999 264.342C548.858 264.342 550.196 264.057 551.014 263.487C551.832 262.892 552.241 262.111 552.241 261.144C552.241 260.425 552.006 259.868 551.535 259.471C551.089 259.05 550.494 258.74 549.75 258.541C549.007 258.318 548.176 258.132 547.259 257.984C546.342 257.835 545.425 257.661 544.508 257.463C543.615 257.265 542.797 256.98 542.054 256.608C541.31 256.211 540.703 255.678 540.232 255.009C539.785 254.34 539.562 253.448 539.562 252.332C539.562 251.266 539.86 250.312 540.455 249.469C541.05 248.626 541.917 247.969 543.057 247.498C544.222 247.003 545.635 246.755 547.296 246.755C548.56 246.755 549.825 246.928 551.089 247.275C552.353 247.598 553.394 248.031 554.212 248.577L553.059 250.696C552.192 250.101 551.262 249.68 550.271 249.432C549.279 249.159 548.288 249.023 547.296 249.023C545.536 249.023 544.235 249.333 543.392 249.952C542.574 250.547 542.165 251.316 542.165 252.258C542.165 253.001 542.388 253.584 542.834 254.005C543.305 254.427 543.913 254.761 544.656 255.009C545.425 255.232 546.255 255.418 547.147 255.567C548.065 255.716 548.969 255.902 549.862 256.125C550.779 256.323 551.609 256.608 552.353 256.98C553.121 257.327 553.729 257.835 554.175 258.504C554.646 259.149 554.881 260.004 554.881 261.07C554.881 262.21 554.559 263.202 553.915 264.044C553.295 264.862 552.378 265.507 551.163 265.978C549.973 266.424 548.523 266.647 546.813 266.647ZM568.017 266.647C565.984 266.647 564.2 266.226 562.663 265.383C561.126 264.515 559.924 263.338 559.056 261.851C558.189 260.339 557.755 258.616 557.755 256.682C557.755 254.749 558.164 253.039 558.982 251.551C559.825 250.064 560.965 248.899 562.402 248.056C563.865 247.189 565.501 246.755 567.31 246.755C569.145 246.755 570.768 247.176 572.181 248.019C573.619 248.837 574.747 250.002 575.565 251.514C576.383 253.001 576.792 254.724 576.792 256.682C576.792 256.806 576.779 256.943 576.755 257.091C576.755 257.215 576.755 257.352 576.755 257.5H559.763V255.53H575.342L574.301 256.311C574.301 254.898 573.991 253.646 573.371 252.555C572.776 251.44 571.958 250.572 570.917 249.952C569.876 249.333 568.674 249.023 567.31 249.023C565.972 249.023 564.77 249.333 563.704 249.952C562.638 250.572 561.808 251.44 561.213 252.555C560.618 253.671 560.32 254.947 560.32 256.385V256.794C560.32 258.281 560.643 259.595 561.287 260.735C561.956 261.851 562.873 262.731 564.038 263.375C565.228 263.995 566.579 264.305 568.091 264.305C569.281 264.305 570.384 264.094 571.4 263.673C572.442 263.251 573.334 262.607 574.078 261.739L575.565 263.449C574.697 264.491 573.607 265.284 572.293 265.829C571.004 266.374 569.579 266.647 568.017 266.647ZM582.165 266.461V246.941H584.694V252.295L584.285 251.291C584.904 249.878 585.896 248.775 587.259 247.982C588.622 247.164 590.246 246.755 592.13 246.755C593.716 246.755 595.104 247.065 596.294 247.684C597.509 248.279 598.451 249.196 599.12 250.436C599.814 251.675 600.161 253.237 600.161 255.121V266.461H597.521V255.381C597.521 253.324 597.001 251.774 595.96 250.733C594.943 249.667 593.506 249.134 591.647 249.134C590.258 249.134 589.044 249.42 588.003 249.99C586.986 250.535 586.193 251.341 585.623 252.406C585.078 253.448 584.805 254.712 584.805 256.199V266.461H582.165ZM613.464 266.647C611.63 266.647 610.217 266.151 609.225 265.16C608.234 264.168 607.738 262.768 607.738 260.958V242.628H610.378V260.81C610.378 261.95 610.663 262.83 611.233 263.449C611.828 264.069 612.671 264.379 613.762 264.379C614.927 264.379 615.893 264.044 616.662 263.375L617.591 265.271C617.071 265.742 616.439 266.089 615.695 266.312C614.976 266.536 614.233 266.647 613.464 266.647ZM604.243 249.134V246.941H616.327V249.134H604.243ZM632.128 266.461V246.941H634.657V252.258L634.396 251.328C634.942 249.841 635.859 248.713 637.148 247.945C638.437 247.151 640.036 246.755 641.944 246.755V249.32C641.845 249.32 641.746 249.32 641.647 249.32C641.548 249.296 641.448 249.283 641.349 249.283C639.292 249.283 637.681 249.915 636.516 251.179C635.351 252.419 634.768 254.191 634.768 256.496V266.461H632.128ZM657.76 266.461V262.148L657.648 261.442V254.228C657.648 252.568 657.177 251.291 656.235 250.399C655.318 249.506 653.942 249.06 652.108 249.06C650.844 249.06 649.642 249.271 648.501 249.692C647.361 250.114 646.394 250.671 645.601 251.365L644.411 249.395C645.403 248.552 646.593 247.907 647.981 247.461C649.369 246.99 650.831 246.755 652.368 246.755C654.897 246.755 656.842 247.387 658.206 248.651C659.594 249.89 660.288 251.787 660.288 254.34V266.461H657.76ZM651.03 266.647C649.567 266.647 648.291 266.412 647.2 265.941C646.134 265.445 645.316 264.776 644.746 263.933C644.176 263.065 643.891 262.074 643.891 260.958C643.891 259.942 644.126 259.025 644.597 258.207C645.093 257.364 645.886 256.695 646.977 256.199C648.092 255.678 649.58 255.418 651.439 255.418H658.169V257.389H651.513C649.629 257.389 648.315 257.723 647.572 258.393C646.853 259.062 646.493 259.892 646.493 260.884C646.493 261.999 646.927 262.892 647.795 263.561C648.662 264.23 649.877 264.565 651.439 264.565C652.926 264.565 654.202 264.23 655.268 263.561C656.359 262.867 657.152 261.875 657.648 260.586L658.243 262.408C657.747 263.697 656.88 264.726 655.64 265.494C654.426 266.263 652.889 266.647 651.03 266.647ZM673.63 266.647C671.796 266.647 670.383 266.151 669.392 265.16C668.4 264.168 667.904 262.768 667.904 260.958V242.628H670.544V260.81C670.544 261.95 670.829 262.83 671.399 263.449C671.994 264.069 672.837 264.379 673.928 264.379C675.093 264.379 676.06 264.044 676.828 263.375L677.758 265.271C677.237 265.742 676.605 266.089 675.861 266.312C675.142 266.536 674.399 266.647 673.63 266.647ZM664.409 249.134V246.941H676.493V249.134H664.409ZM690.165 266.647C688.132 266.647 686.348 266.226 684.811 265.383C683.274 264.515 682.072 263.338 681.204 261.851C680.337 260.339 679.903 258.616 679.903 256.682C679.903 254.749 680.312 253.039 681.13 251.551C681.973 250.064 683.113 248.899 684.55 248.056C686.013 247.189 687.649 246.755 689.458 246.755C691.293 246.755 692.916 247.176 694.329 248.019C695.767 248.837 696.895 250.002 697.713 251.514C698.531 253.001 698.94 254.724 698.94 256.682C698.94 256.806 698.927 256.943 698.903 257.091C698.903 257.215 698.903 257.352 698.903 257.5H681.911V255.53H697.49L696.449 256.311C696.449 254.898 696.139 253.646 695.519 252.555C694.924 251.44 694.106 250.572 693.065 249.952C692.024 249.333 690.822 249.023 689.458 249.023C688.12 249.023 686.918 249.333 685.852 249.952C684.786 250.572 683.956 251.44 683.361 252.555C682.766 253.671 682.468 254.947 682.468 256.385V256.794C682.468 258.281 682.791 259.595 683.435 260.735C684.104 261.851 685.021 262.731 686.186 263.375C687.376 263.995 688.727 264.305 690.239 264.305C691.429 264.305 692.532 264.094 693.548 263.673C694.59 263.251 695.482 262.607 696.226 261.739L697.713 263.449C696.845 264.491 695.755 265.284 694.441 265.829C693.152 266.374 691.727 266.647 690.165 266.647Z" fill="#F4F3F3"></path>
<path d="M475.634 336.302V313.353H482.042V336.302H475.634ZM467.041 327.858V321.798H490.685V327.858H467.041ZM499.932 342.213V310.422L503.409 313.9H492.978V307.442H507.979V342.213H499.932ZM528.921 342.809C526.073 342.809 523.523 342.114 521.271 340.723C519.019 339.299 517.248 337.246 515.956 334.563C514.665 331.881 514.019 328.636 514.019 324.828C514.019 321.019 514.665 317.774 515.956 315.092C517.248 312.409 519.019 310.373 521.271 308.982C523.523 307.558 526.073 306.846 528.921 306.846C531.802 306.846 534.352 307.558 536.57 308.982C538.822 310.373 540.594 312.409 541.885 315.092C543.177 317.774 543.823 321.019 543.823 324.828C543.823 328.636 543.177 331.881 541.885 334.563C540.594 337.246 538.822 339.299 536.57 340.723C534.352 342.114 531.802 342.809 528.921 342.809ZM528.921 336.004C530.278 336.004 531.454 335.623 532.448 334.861C533.474 334.1 534.269 332.891 534.832 331.235C535.428 329.58 535.726 327.444 535.726 324.828C535.726 322.211 535.428 320.076 534.832 318.42C534.269 316.764 533.474 315.555 532.448 314.794C531.454 314.032 530.278 313.651 528.921 313.651C527.596 313.651 526.421 314.032 525.394 314.794C524.401 315.555 523.606 316.764 523.01 318.42C522.447 320.076 522.165 322.211 522.165 324.828C522.165 327.444 522.447 329.58 523.01 331.235C523.606 332.891 524.401 334.1 525.394 334.861C526.421 335.623 527.596 336.004 528.921 336.004ZM552.749 342.213L576.493 307.442H582.404L558.66 342.213H552.749ZM555.779 326.218C554.09 326.218 552.6 325.838 551.309 325.076C550.017 324.281 548.991 323.172 548.229 321.748C547.501 320.291 547.136 318.585 547.136 316.632C547.136 314.678 547.501 312.989 548.229 311.565C548.991 310.141 550.017 309.032 551.309 308.237C552.6 307.442 554.09 307.045 555.779 307.045C557.468 307.045 558.958 307.442 560.25 308.237C561.541 309.032 562.551 310.141 563.28 311.565C564.008 312.956 564.373 314.645 564.373 316.632C564.373 318.585 564.008 320.291 563.28 321.748C562.551 323.172 561.541 324.281 560.25 325.076C558.958 325.838 557.468 326.218 555.779 326.218ZM555.779 322.145C556.872 322.145 557.75 321.698 558.412 320.804C559.074 319.877 559.405 318.486 559.405 316.632C559.405 314.777 559.074 313.403 558.412 312.509C557.75 311.582 556.872 311.118 555.779 311.118C554.72 311.118 553.842 311.582 553.147 312.509C552.484 313.436 552.153 314.81 552.153 316.632C552.153 318.453 552.484 319.827 553.147 320.754C553.842 321.682 554.72 322.145 555.779 322.145ZM579.374 342.61C577.718 342.61 576.228 342.23 574.903 341.468C573.612 340.673 572.602 339.564 571.873 338.14C571.145 336.683 570.78 334.977 570.78 333.024C570.78 331.07 571.145 329.381 571.873 327.957C572.602 326.533 573.612 325.424 574.903 324.629C576.228 323.834 577.718 323.437 579.374 323.437C581.096 323.437 582.603 323.834 583.894 324.629C585.186 325.424 586.196 326.533 586.924 327.957C587.653 329.381 588.017 331.07 588.017 333.024C588.017 334.977 587.653 336.683 586.924 338.14C586.196 339.564 585.186 340.673 583.894 341.468C582.603 342.23 581.096 342.61 579.374 342.61ZM579.374 338.537C580.467 338.537 581.344 338.074 582.007 337.146C582.669 336.219 583 334.845 583 333.024C583 331.202 582.669 329.828 582.007 328.901C581.344 327.974 580.467 327.51 579.374 327.51C578.314 327.51 577.437 327.974 576.741 328.901C576.079 329.795 575.748 331.169 575.748 333.024C575.748 334.878 576.079 336.269 576.741 337.196C577.437 338.09 578.314 338.537 579.374 338.537Z" fill="#F4F3F3"></path>
<path d="M616.213 333.362C614.922 333.362 613.68 333.155 612.488 332.741C611.312 332.311 610.402 331.764 609.756 331.102L610.476 329.686C611.089 330.282 611.908 330.787 612.935 331.201C613.978 331.599 615.071 331.797 616.213 331.797C617.306 331.797 618.192 331.665 618.871 331.4C619.566 331.118 620.071 330.746 620.386 330.282C620.717 329.819 620.883 329.305 620.883 328.742C620.883 328.064 620.684 327.517 620.287 327.103C619.906 326.689 619.401 326.366 618.772 326.135C618.142 325.886 617.447 325.671 616.685 325.489C615.924 325.307 615.162 325.116 614.4 324.918C613.639 324.702 612.935 324.421 612.289 324.073C611.66 323.726 611.147 323.27 610.749 322.707C610.369 322.128 610.178 321.374 610.178 320.447C610.178 319.586 610.402 318.8 610.849 318.088C611.312 317.359 612.016 316.78 612.96 316.349C613.904 315.902 615.112 315.679 616.586 315.679C617.563 315.679 618.531 315.819 619.492 316.101C620.452 316.366 621.28 316.738 621.975 317.218L621.355 318.684C620.609 318.187 619.815 317.823 618.97 317.591C618.142 317.359 617.339 317.243 616.561 317.243C615.518 317.243 614.657 317.384 613.978 317.665C613.299 317.947 612.794 318.328 612.463 318.808C612.148 319.272 611.991 319.801 611.991 320.397C611.991 321.076 612.182 321.623 612.562 322.037C612.96 322.451 613.473 322.773 614.102 323.005C614.748 323.237 615.452 323.444 616.213 323.626C616.975 323.808 617.728 324.007 618.473 324.222C619.235 324.438 619.931 324.719 620.56 325.067C621.205 325.398 621.719 325.845 622.1 326.408C622.497 326.971 622.696 327.708 622.696 328.618C622.696 329.463 622.464 330.249 622 330.978C621.537 331.69 620.825 332.269 619.864 332.716C618.921 333.147 617.704 333.362 616.213 333.362ZM626.328 333.213V320.174H628.091V333.213H626.328ZM627.222 317.293C626.857 317.293 626.551 317.169 626.303 316.92C626.054 316.672 625.93 316.374 625.93 316.026C625.93 315.679 626.054 315.389 626.303 315.157C626.551 314.909 626.857 314.784 627.222 314.784C627.586 314.784 627.892 314.9 628.141 315.132C628.389 315.364 628.513 315.654 628.513 316.001C628.513 316.366 628.389 316.672 628.141 316.92C627.909 317.169 627.603 317.293 627.222 317.293ZM632.998 333.213V320.174H634.686V323.75L634.413 323.08C634.827 322.136 635.489 321.399 636.4 320.869C637.311 320.323 638.395 320.05 639.654 320.05C640.713 320.05 641.641 320.257 642.435 320.671C643.247 321.068 643.876 321.681 644.323 322.509C644.786 323.336 645.018 324.38 645.018 325.638V333.213H643.255V325.812C643.255 324.438 642.907 323.403 642.212 322.707C641.533 321.995 640.573 321.639 639.331 321.639C638.404 321.639 637.592 321.83 636.897 322.211C636.218 322.575 635.688 323.113 635.307 323.825C634.943 324.52 634.761 325.365 634.761 326.358V333.213H632.998ZM655.196 333.337C653.904 333.337 652.745 333.056 651.719 332.493C650.709 331.913 649.914 331.127 649.334 330.133C648.755 329.123 648.465 327.973 648.465 326.681C648.465 325.373 648.755 324.222 649.334 323.229C649.914 322.235 650.709 321.457 651.719 320.894C652.745 320.331 653.904 320.05 655.196 320.05C656.305 320.05 657.307 320.265 658.201 320.695C659.095 321.126 659.799 321.772 660.312 322.633L658.996 323.527C658.549 322.865 657.994 322.376 657.332 322.061C656.669 321.747 655.949 321.59 655.171 321.59C654.244 321.59 653.408 321.805 652.662 322.235C651.917 322.649 651.33 323.237 650.899 323.999C650.469 324.76 650.253 325.654 650.253 326.681C650.253 327.708 650.469 328.602 650.899 329.363C651.33 330.125 651.917 330.721 652.662 331.152C653.408 331.566 654.244 331.773 655.171 331.773C655.949 331.773 656.669 331.615 657.332 331.301C657.994 330.986 658.549 330.506 658.996 329.86L660.312 330.754C659.799 331.599 659.095 332.244 658.201 332.691C657.307 333.122 656.305 333.337 655.196 333.337ZM669.096 333.337C667.739 333.337 666.546 333.056 665.52 332.493C664.493 331.913 663.69 331.127 663.111 330.133C662.531 329.123 662.242 327.973 662.242 326.681C662.242 325.39 662.515 324.247 663.061 323.254C663.624 322.26 664.386 321.482 665.346 320.919C666.323 320.34 667.416 320.05 668.624 320.05C669.85 320.05 670.934 320.331 671.878 320.894C672.838 321.441 673.592 322.219 674.138 323.229C674.685 324.222 674.958 325.373 674.958 326.681C674.958 326.764 674.949 326.855 674.933 326.954C674.933 327.037 674.933 327.128 674.933 327.227H663.583V325.911H673.989L673.294 326.433C673.294 325.489 673.087 324.653 672.673 323.924C672.275 323.179 671.729 322.6 671.034 322.186C670.338 321.772 669.535 321.565 668.624 321.565C667.73 321.565 666.927 321.772 666.215 322.186C665.503 322.6 664.949 323.179 664.551 323.924C664.154 324.669 663.955 325.522 663.955 326.482V326.756C663.955 327.749 664.17 328.627 664.601 329.388C665.048 330.133 665.661 330.721 666.439 331.152C667.234 331.566 668.136 331.773 669.146 331.773C669.941 331.773 670.678 331.632 671.356 331.35C672.052 331.069 672.648 330.638 673.145 330.059L674.138 331.201C673.559 331.897 672.83 332.427 671.953 332.791C671.092 333.155 670.139 333.337 669.096 333.337ZM685.047 333.213V314.784H686.81V333.213H685.047ZM699.888 333.213V330.332L699.814 329.86V325.042C699.814 323.932 699.499 323.08 698.87 322.484C698.257 321.888 697.338 321.59 696.113 321.59C695.269 321.59 694.466 321.73 693.704 322.012C692.942 322.293 692.297 322.666 691.767 323.129L690.972 321.813C691.634 321.25 692.429 320.82 693.356 320.522C694.283 320.207 695.26 320.05 696.287 320.05C697.976 320.05 699.276 320.472 700.186 321.316C701.113 322.144 701.577 323.411 701.577 325.116V333.213H699.888ZM695.393 333.337C694.416 333.337 693.563 333.18 692.835 332.865C692.123 332.534 691.576 332.087 691.195 331.524C690.815 330.945 690.624 330.282 690.624 329.537C690.624 328.858 690.782 328.246 691.096 327.699C691.427 327.136 691.957 326.689 692.686 326.358C693.431 326.01 694.424 325.837 695.666 325.837H700.161V327.153H695.716C694.457 327.153 693.58 327.376 693.083 327.824C692.603 328.271 692.363 328.825 692.363 329.488C692.363 330.233 692.653 330.829 693.232 331.276C693.812 331.723 694.623 331.946 695.666 331.946C696.659 331.946 697.512 331.723 698.224 331.276C698.953 330.812 699.483 330.15 699.814 329.289L700.211 330.506C699.88 331.367 699.3 332.054 698.473 332.567C697.661 333.081 696.635 333.337 695.393 333.337ZM709.869 333.337C708.792 333.337 707.774 333.188 706.814 332.89C705.853 332.576 705.1 332.186 704.554 331.723L705.348 330.332C705.878 330.729 706.557 331.077 707.385 331.375C708.213 331.657 709.082 331.797 709.993 331.797C711.235 331.797 712.129 331.607 712.675 331.226C713.221 330.829 713.495 330.307 713.495 329.661C713.495 329.181 713.337 328.809 713.023 328.544C712.725 328.262 712.327 328.055 711.831 327.923C711.334 327.774 710.779 327.65 710.167 327.55C709.554 327.451 708.941 327.335 708.329 327.203C707.733 327.07 707.186 326.88 706.689 326.631C706.193 326.366 705.787 326.01 705.472 325.563C705.174 325.116 705.025 324.52 705.025 323.775C705.025 323.063 705.224 322.426 705.622 321.863C706.019 321.3 706.598 320.861 707.36 320.546C708.138 320.215 709.082 320.05 710.191 320.05C711.036 320.05 711.88 320.166 712.725 320.397C713.569 320.613 714.265 320.902 714.811 321.267L714.041 322.682C713.462 322.285 712.841 322.004 712.178 321.838C711.516 321.656 710.854 321.565 710.191 321.565C709.016 321.565 708.147 321.772 707.584 322.186C707.037 322.583 706.764 323.096 706.764 323.726C706.764 324.222 706.913 324.611 707.211 324.893C707.526 325.174 707.931 325.398 708.428 325.563C708.941 325.712 709.496 325.837 710.092 325.936C710.705 326.035 711.309 326.159 711.905 326.309C712.518 326.441 713.072 326.631 713.569 326.88C714.082 327.112 714.488 327.451 714.786 327.898C715.101 328.329 715.258 328.9 715.258 329.612C715.258 330.373 715.043 331.036 714.612 331.599C714.198 332.145 713.586 332.576 712.774 332.89C711.98 333.188 711.011 333.337 709.869 333.337ZM722.617 333.337C721.391 333.337 720.448 333.006 719.785 332.344C719.123 331.681 718.792 330.746 718.792 329.537V317.293H720.555V329.438C720.555 330.2 720.746 330.787 721.126 331.201C721.524 331.615 722.087 331.822 722.815 331.822C723.593 331.822 724.239 331.599 724.752 331.152L725.373 332.418C725.026 332.733 724.603 332.965 724.107 333.114C723.627 333.263 723.13 333.337 722.617 333.337ZM716.457 321.639V320.174H724.529V321.639H716.457ZM737.741 333.213L732.824 320.174H734.512L738.983 332.269H738.213L742.808 320.174H744.323L748.868 332.269H748.098L752.643 320.174H754.257L749.315 333.213H747.651L743.28 321.838H743.801L739.405 333.213H737.741ZM762.087 333.337C760.729 333.337 759.537 333.056 758.511 332.493C757.484 331.913 756.681 331.127 756.102 330.133C755.522 329.123 755.232 327.973 755.232 326.681C755.232 325.39 755.506 324.247 756.052 323.254C756.615 322.26 757.377 321.482 758.337 320.919C759.314 320.34 760.407 320.05 761.615 320.05C762.841 320.05 763.925 320.331 764.869 320.894C765.829 321.441 766.583 322.219 767.129 323.229C767.675 324.222 767.949 325.373 767.949 326.681C767.949 326.764 767.94 326.855 767.924 326.954C767.924 327.037 767.924 327.128 767.924 327.227H756.573V325.911H766.98L766.284 326.433C766.284 325.489 766.078 324.653 765.664 323.924C765.266 323.179 764.72 322.6 764.024 322.186C763.329 321.772 762.526 321.565 761.615 321.565C760.721 321.565 759.918 321.772 759.206 322.186C758.494 322.6 757.939 323.179 757.542 323.924C757.145 324.669 756.946 325.522 756.946 326.482V326.756C756.946 327.749 757.161 328.627 757.592 329.388C758.039 330.133 758.651 330.721 759.43 331.152C760.224 331.566 761.127 331.773 762.137 331.773C762.932 331.773 763.668 331.632 764.347 331.35C765.043 331.069 765.639 330.638 766.135 330.059L767.129 331.201C766.549 331.897 765.821 332.427 764.943 332.791C764.082 333.155 763.13 333.337 762.087 333.337ZM777.076 333.337C775.719 333.337 774.526 333.056 773.5 332.493C772.473 331.913 771.67 331.127 771.091 330.133C770.511 329.123 770.221 327.973 770.221 326.681C770.221 325.39 770.495 324.247 771.041 323.254C771.604 322.26 772.366 321.482 773.326 320.919C774.303 320.34 775.396 320.05 776.604 320.05C777.83 320.05 778.914 320.331 779.858 320.894C780.818 321.441 781.572 322.219 782.118 323.229C782.664 324.222 782.938 325.373 782.938 326.681C782.938 326.764 782.929 326.855 782.913 326.954C782.913 327.037 782.913 327.128 782.913 327.227H771.563V325.911H781.969L781.274 326.433C781.274 325.489 781.067 324.653 780.653 323.924C780.255 323.179 779.709 322.6 779.013 322.186C778.318 321.772 777.515 321.565 776.604 321.565C775.71 321.565 774.907 321.772 774.195 322.186C773.483 322.6 772.929 323.179 772.531 323.924C772.134 324.669 771.935 325.522 771.935 326.482V326.756C771.935 327.749 772.15 328.627 772.581 329.388C773.028 330.133 773.641 330.721 774.419 331.152C775.214 331.566 776.116 331.773 777.126 331.773C777.921 331.773 778.657 331.632 779.336 331.35C780.032 331.069 780.628 330.638 781.125 330.059L782.118 331.201C781.539 331.897 780.81 332.427 779.932 332.791C779.071 333.155 778.119 333.337 777.076 333.337ZM787.918 329.835L787.967 327.575L796.089 320.174H798.25L792.512 325.663L791.519 326.507L787.918 329.835ZM786.527 333.213V314.784H788.29V333.213H786.527ZM796.635 333.213L791.196 326.433L792.339 325.067L798.796 333.213H796.635Z" fill="#F4F3F3"></path>
</g>
</g>
<defs>
<filter id="filter0_dddd_1824_3831" x="236.077" y="580.729" width="1483.27" height="1483.27" filterUnits="userSpaceOnUse" color-interpolation-filters="sRGB">
<feFlood flood-opacity="0" result="BackgroundImageFix"></feFlood>
<feColorMatrix in="SourceAlpha" type="matrix" values="0 0 0 0 0 0 0 0 0 0 0 0 0 0 0 0 0 0 127 0" result="hardAlpha"></feColorMatrix>
<feOffset dy="33.6584"></feOffset>
<feGaussianBlur stdDeviation="13.4633"></feGaussianBlur>
<feColorMatrix type="matrix" values="0 0 0 0 0 0 0 0 0 0 0 0 0 0 0 0 0 0 0.0224916 0"></feColorMatrix>
<feBlend mode="normal" in2="BackgroundImageFix" result="effect1_dropShadow_1824_3831"></feBlend>
<feColorMatrix in="SourceAlpha" type="matrix" values="0 0 0 0 0 0 0 0 0 0 0 0 0 0 0 0 0 0 127 0" result="hardAlpha"></feColorMatrix>
<feOffset dy="80.8857"></feOffset>
<feGaussianBlur stdDeviation="32.3543"></feGaussianBlur>
<feColorMatrix type="matrix" values="0 0 0 0 0 0 0 0 0 0 0 0 0 0 0 0 0 0 0.0323114 0"></feColorMatrix>
<feBlend mode="normal" in2="effect1_dropShadow_1824_3831" result="effect2_dropShadow_1824_3831"></feBlend>
<feColorMatrix in="SourceAlpha" type="matrix" values="0 0 0 0 0 0 0 0 0 0 0 0 0 0 0 0 0 0 127 0" result="hardAlpha"></feColorMatrix>
<feOffset dy="152.301"></feOffset>
<feGaussianBlur stdDeviation="60.9202"></feGaussianBlur>
<feColorMatrix type="matrix" values="0 0 0 0 0 0 0 0 0 0 0 0 0 0 0 0 0 0 0.04 0"></feColorMatrix>
<feBlend mode="normal" in2="effect2_dropShadow_1824_3831" result="effect3_dropShadow_1824_3831"></feBlend>
<feColorMatrix in="SourceAlpha" type="matrix" values="0 0 0 0 0 0 0 0 0 0 0 0 0 0 0 0 0 0 127 0" result="hardAlpha"></feColorMatrix>
<feOffset dy="729.785"></feOffset>
<feGaussianBlur stdDeviation="364.892"></feGaussianBlur>
<feColorMatrix type="matrix" values="0 0 0 0 0 0 0 0 0 0 0 0 0 0 0 0 0 0 0.0476886 0"></feColorMatrix>
<feBlend mode="normal" in2="effect3_dropShadow_1824_3831" result="effect4_dropShadow_1824_3831"></feBlend>
<feBlend mode="normal" in="SourceGraphic" in2="effect4_dropShadow_1824_3831" result="shape"></feBlend>
</filter>
<filter id="filter1_dddd_1824_3831" x="155.456" y="252.162" width="1483.27" height="1483.27" filterUnits="userSpaceOnUse" color-interpolation-filters="sRGB">
<feFlood flood-opacity="0" result="BackgroundImageFix"></feFlood>
<feColorMatrix in="SourceAlpha" type="matrix" values="0 0 0 0 0 0 0 0 0 0 0 0 0 0 0 0 0 0 127 0" result="hardAlpha"></feColorMatrix>
<feOffset dy="33.6584"></feOffset>
<feGaussianBlur stdDeviation="13.4633"></feGaussianBlur>
<feColorMatrix type="matrix" values="0 0 0 0 0 0 0 0 0 0 0 0 0 0 0 0 0 0 0.0224916 0"></feColorMatrix>
<feBlend mode="normal" in2="BackgroundImageFix" result="effect1_dropShadow_1824_3831"></feBlend>
<feColorMatrix in="SourceAlpha" type="matrix" values="0 0 0 0 0 0 0 0 0 0 0 0 0 0 0 0 0 0 127 0" result="hardAlpha"></feColorMatrix>
<feOffset dy="80.8857"></feOffset>
<feGaussianBlur stdDeviation="32.3543"></feGaussianBlur>
<feColorMatrix type="matrix" values="0 0 0 0 0 0 0 0 0 0 0 0 0 0 0 0 0 0 0.0323114 0"></feColorMatrix>
<feBlend mode="normal" in2="effect1_dropShadow_1824_3831" result="effect2_dropShadow_1824_3831"></feBlend>
<feColorMatrix in="SourceAlpha" type="matrix" values="0 0 0 0 0 0 0 0 0 0 0 0 0 0 0 0 0 0 127 0" result="hardAlpha"></feColorMatrix>
<feOffset dy="152.301"></feOffset>
<feGaussianBlur stdDeviation="60.9202"></feGaussianBlur>
<feColorMatrix type="matrix" values="0 0 0 0 0 0 0 0 0 0 0 0 0 0 0 0 0 0 0.04 0"></feColorMatrix>
<feBlend mode="normal" in2="effect2_dropShadow_1824_3831" result="effect3_dropShadow_1824_3831"></feBlend>
<feColorMatrix in="SourceAlpha" type="matrix" values="0 0 0 0 0 0 0 0 0 0 0 0 0 0 0 0 0 0 127 0" result="hardAlpha"></feColorMatrix>
<feOffset dy="729.785"></feOffset>
<feGaussianBlur stdDeviation="364.892"></feGaussianBlur>
<feColorMatrix type="matrix" values="0 0 0 0 0 0 0 0 0 0 0 0 0 0 0 0 0 0 0.0476886 0"></feColorMatrix>
<feBlend mode="normal" in2="effect3_dropShadow_1824_3831" result="effect4_dropShadow_1824_3831"></feBlend>
<feBlend mode="normal" in="SourceGraphic" in2="effect4_dropShadow_1824_3831" result="shape"></feBlend>
</filter>
<filter id="filter2_di_1824_3831" x="404.183" y="184.5" width="445.375" height="228.218" filterUnits="userSpaceOnUse" color-interpolation-filters="sRGB">
<feFlood flood-opacity="0" result="BackgroundImageFix"></feFlood>
<feColorMatrix in="SourceAlpha" type="matrix" values="0 0 0 0 0 0 0 0 0 0 0 0 0 0 0 0 0 0 127 0" result="hardAlpha"></feColorMatrix>
<feOffset dx="-6.90834" dy="6.90834"></feOffset>
<feGaussianBlur stdDeviation="3.45417"></feGaussianBlur>
<feComposite in2="hardAlpha" operator="out"></feComposite>
<feColorMatrix type="matrix" values="0 0 0 0 0 0 0 0 0 0 0 0 0 0 0 0 0 0 0.04 0"></feColorMatrix>
<feBlend mode="normal" in2="BackgroundImageFix" result="effect1_dropShadow_1824_3831"></feBlend>
<feBlend mode="normal" in="SourceGraphic" in2="BackgroundImageFix" result="shape"></feBlend>
<feColorMatrix in="SourceAlpha" type="matrix" values="0 0 0 0 0 0 0 0 0 0 0 0 0 0 0 0 0 0 127 0" result="hardAlpha"></feColorMatrix>
<feOffset dx="2.91288" dy="2.91288"></feOffset>
<feGaussianBlur stdDeviation="1.45644"></feGaussianBlur>
<feComposite in2="hardAlpha" operator="arithmetic" k2="-1" k3="1"></feComposite>
<feColorMatrix type="matrix" values="0 0 0 0 1 0 0 0 0 1 0 0 0 0 1 0 0 0 1 0"></feColorMatrix>
<feBlend mode="normal" in2="shape" result="effect2_innerShadow_1824_3831"></feBlend>
<feBlend mode="normal" in="effect2_innerShadow_1824_3831" in2="effect1_dropShadow_1824_3831" result="effect2_innerShadow_1824_3831"></feBlend>
</filter>
<linearGradient id="paint0_linear_1824_3831" x1="152.589" y1="651.788" x2="1212.43" y2="651.788" gradientUnits="userSpaceOnUse">
<stop stop-color="#F4F3F3"></stop>
<stop offset="1" stop-color="#F4F3F3" stop-opacity="0.4"></stop>
</linearGradient>
<linearGradient id="paint1_linear_1824_3831" x1="632.323" y1="184.5" x2="632.323" y2="398.901" gradientUnits="userSpaceOnUse">
<stop stop-color="#04092D" stop-opacity="0.5"></stop>
<stop offset="1" stop-color="#04092D"></stop>
</linearGradient>
<clipPath id="clip0_1824_3831">
<rect width="1202" height="898" rx="40.3919" fill="#04092D"></rect>
</clipPath>
</defs>
</svg>