<svg width="2404" height="1796" viewBox="0 0 2404 1796" fill="none" xmlns="http://www.w3.org/2000/svg">
<g clip-path="url(#clip0_1824_4092)">
<path d="M305.178 1865.79C305.178 1865.79 463.995 1366.76 774.392 1366.76C1107.78 1366.76 1143.93 959.311 1396.58 959.311C1664.85 959.311 1791.18 1187.81 1941.68 1187.81C2143.62 1187.82 2284.82 717.709 2424.87 742.296" stroke="#F4F3F3" stroke-width="2"></path>
<path d="M305.178 1865.79C305.178 1865.79 463.995 1366.76 774.392 1366.76C1107.78 1366.76 1143.93 959.311 1396.58 959.311C1664.85 959.311 1791.18 1187.81 1941.68 1187.81C2143.62 1187.82 2284.82 717.709 2424.87 742.296" stroke="url(#paint0_linear_1824_4092)" stroke-width="2"></path>
<path d="M576.963 1783.67C677.118 1664.63 810.129 1021.82 1247.98 1009.96C1405.66 1005.69 1445.85 1215.8 1553.43 1215.8C1648.64 1215.8 1702.39 531.952 1929.67 519.771C2070.08 512.246 2196.84 124.9 2404.14 132.169" stroke="#465CEE" stroke-width="2"></path>
<g filter="url(#filter0_dddd_1824_4092)">
<circle cx="1955.42" cy="1185.16" r="23.6981" fill="#F4F3F3"></circle>
</g>
<g filter="url(#filter1_dddd_1824_4092)">
<circle cx="1851.68" cy="551.721" r="23.6981" fill="#465CEE"></circle>
</g>
</g>
<rect x="1144.5" y="1355" width="115" height="115" rx="57.5" stroke="#F4F3F3" stroke-width="2"></rect>
<path d="M1201.33 1441.7V1385.3H1202.89V1441.7H1201.33ZM1202.17 1434.74C1199.09 1434.74 1196.17 1434.2 1193.41 1433.12C1190.69 1432 1188.61 1430.6 1187.17 1428.92L1188.25 1427.48C1189.61 1429 1191.53 1430.3 1194.01 1431.38C1196.53 1432.42 1199.23 1432.94 1202.11 1432.94C1205.03 1432.94 1207.43 1432.54 1209.31 1431.74C1211.19 1430.94 1212.57 1429.88 1213.45 1428.56C1214.37 1427.2 1214.83 1425.7 1214.83 1424.06C1214.83 1422.14 1214.35 1420.6 1213.39 1419.44C1212.43 1418.28 1211.15 1417.36 1209.55 1416.68C1207.99 1416 1206.27 1415.44 1204.39 1415C1202.55 1414.56 1200.67 1414.1 1198.75 1413.62C1196.87 1413.1 1195.13 1412.46 1193.53 1411.7C1191.97 1410.9 1190.71 1409.82 1189.75 1408.46C1188.83 1407.06 1188.37 1405.26 1188.37 1403.06C1188.37 1401.18 1188.87 1399.42 1189.87 1397.78C1190.87 1396.14 1192.43 1394.82 1194.55 1393.82C1196.67 1392.78 1199.39 1392.26 1202.71 1392.26C1204.99 1392.26 1207.23 1392.62 1209.43 1393.34C1211.67 1394.02 1213.57 1394.94 1215.13 1396.1L1214.23 1397.72C1212.55 1396.48 1210.69 1395.56 1208.65 1394.96C1206.61 1394.36 1204.65 1394.06 1202.77 1394.06C1199.97 1394.06 1197.63 1394.48 1195.75 1395.32C1193.91 1396.12 1192.55 1397.2 1191.67 1398.56C1190.79 1399.92 1190.35 1401.42 1190.35 1403.06C1190.35 1405.02 1190.83 1406.58 1191.79 1407.74C1192.75 1408.9 1194.01 1409.82 1195.57 1410.5C1197.17 1411.18 1198.91 1411.74 1200.79 1412.18C1202.67 1412.62 1204.55 1413.1 1206.43 1413.62C1208.31 1414.1 1210.03 1414.74 1211.59 1415.54C1213.19 1416.34 1214.45 1417.42 1215.37 1418.78C1216.33 1420.1 1216.81 1421.84 1216.81 1424C1216.81 1425.88 1216.29 1427.64 1215.25 1429.28C1214.25 1430.92 1212.65 1432.24 1210.45 1433.24C1208.29 1434.24 1205.53 1434.74 1202.17 1434.74Z" fill="#F4F3F3"></path>
<rect x="1251.5" y="587.364" width="153" height="153" rx="76.5" stroke="#F4F3F3" stroke-width="2"></rect>
<path d="M1327.21 697.764V631.964H1329.03V697.764H1327.21ZM1328.19 689.644C1324.6 689.644 1321.19 689.014 1317.97 687.754C1314.8 686.447 1312.37 684.814 1310.69 682.854L1311.95 681.174C1313.54 682.947 1315.78 684.464 1318.67 685.724C1321.61 686.937 1324.76 687.544 1328.12 687.544C1331.53 687.544 1334.33 687.077 1336.52 686.144C1338.72 685.21 1340.33 683.974 1341.35 682.434C1342.43 680.847 1342.96 679.097 1342.96 677.184C1342.96 674.944 1342.4 673.147 1341.28 671.794C1340.16 670.44 1338.67 669.367 1336.8 668.574C1334.98 667.78 1332.98 667.127 1330.78 666.614C1328.64 666.1 1326.44 665.564 1324.2 665.004C1322.01 664.397 1319.98 663.65 1318.11 662.764C1316.29 661.83 1314.82 660.57 1313.7 658.984C1312.63 657.35 1312.09 655.25 1312.09 652.684C1312.09 650.49 1312.68 648.437 1313.84 646.524C1315.01 644.61 1316.83 643.07 1319.3 641.904C1321.78 640.69 1324.95 640.084 1328.82 640.084C1331.48 640.084 1334.1 640.504 1336.66 641.344C1339.28 642.137 1341.49 643.21 1343.31 644.564L1342.26 646.454C1340.3 645.007 1338.13 643.934 1335.75 643.234C1333.37 642.534 1331.09 642.184 1328.89 642.184C1325.63 642.184 1322.9 642.674 1320.7 643.654C1318.56 644.587 1316.97 645.847 1315.94 647.434C1314.92 649.02 1314.4 650.77 1314.4 652.684C1314.4 654.97 1314.96 656.79 1316.08 658.144C1317.2 659.497 1318.67 660.57 1320.49 661.364C1322.36 662.157 1324.39 662.81 1326.58 663.324C1328.78 663.837 1330.97 664.397 1333.16 665.004C1335.36 665.564 1337.36 666.31 1339.18 667.244C1341.05 668.177 1342.52 669.437 1343.59 671.024C1344.71 672.564 1345.27 674.594 1345.27 677.114C1345.27 679.307 1344.67 681.36 1343.45 683.274C1342.29 685.187 1340.42 686.727 1337.85 687.894C1335.33 689.06 1332.11 689.644 1328.19 689.644Z" fill="#F4F3F3"></path>
<rect x="1932.72" y="716" width="192" height="192" rx="96" stroke="#F4F3F3" stroke-width="2"></rect>
<path d="M2027.82 850.6V775.4H2029.9V850.6H2027.82ZM2028.94 841.32C2024.84 841.32 2020.94 840.6 2017.26 839.16C2013.64 837.667 2010.86 835.8 2008.94 833.56L2010.38 831.64C2012.2 833.667 2014.76 835.4 2018.06 836.84C2021.42 838.227 2025.02 838.92 2028.86 838.92C2032.76 838.92 2035.96 838.387 2038.46 837.32C2040.97 836.253 2042.81 834.84 2043.98 833.08C2045.21 831.267 2045.82 829.267 2045.82 827.08C2045.82 824.52 2045.18 822.467 2043.9 820.92C2042.62 819.373 2040.92 818.147 2038.78 817.24C2036.7 816.333 2034.41 815.587 2031.9 815C2029.45 814.413 2026.94 813.8 2024.38 813.16C2021.88 812.467 2019.56 811.613 2017.42 810.6C2015.34 809.533 2013.66 808.093 2012.38 806.28C2011.16 804.413 2010.54 802.013 2010.54 799.08C2010.54 796.573 2011.21 794.227 2012.54 792.04C2013.88 789.853 2015.96 788.093 2018.78 786.76C2021.61 785.373 2025.24 784.68 2029.66 784.68C2032.7 784.68 2035.69 785.16 2038.62 786.12C2041.61 787.027 2044.14 788.253 2046.22 789.8L2045.02 791.96C2042.78 790.307 2040.3 789.08 2037.58 788.28C2034.86 787.48 2032.25 787.08 2029.74 787.08C2026.01 787.08 2022.89 787.64 2020.38 788.76C2017.93 789.827 2016.12 791.267 2014.94 793.08C2013.77 794.893 2013.18 796.893 2013.18 799.08C2013.18 801.693 2013.82 803.773 2015.1 805.32C2016.38 806.867 2018.06 808.093 2020.14 809C2022.28 809.907 2024.6 810.653 2027.1 811.24C2029.61 811.827 2032.12 812.467 2034.62 813.16C2037.13 813.8 2039.42 814.653 2041.5 815.72C2043.64 816.787 2045.32 818.227 2046.54 820.04C2047.82 821.8 2048.46 824.12 2048.46 827C2048.46 829.507 2047.77 831.853 2046.38 834.04C2045.05 836.227 2042.92 837.987 2039.98 839.32C2037.1 840.653 2033.42 841.32 2028.94 841.32Z" fill="#F4F3F3"></path>
<defs>
<filter id="filter0_dddd_1824_4092" x="472.153" y="1161.46" width="2966.53" height="2966.53" filterUnits="userSpaceOnUse" color-interpolation-filters="sRGB">
<feFlood flood-opacity="0" result="BackgroundImageFix"></feFlood>
<feColorMatrix in="SourceAlpha" type="matrix" values="0 0 0 0 0 0 0 0 0 0 0 0 0 0 0 0 0 0 127 0" result="hardAlpha"></feColorMatrix>
<feOffset dy="67.3167"></feOffset>
<feGaussianBlur stdDeviation="26.9267"></feGaussianBlur>
<feColorMatrix type="matrix" values="0 0 0 0 0 0 0 0 0 0 0 0 0 0 0 0 0 0 0.0224916 0"></feColorMatrix>
<feBlend mode="normal" in2="BackgroundImageFix" result="effect1_dropShadow_1824_4092"></feBlend>
<feColorMatrix in="SourceAlpha" type="matrix" values="0 0 0 0 0 0 0 0 0 0 0 0 0 0 0 0 0 0 127 0" result="hardAlpha"></feColorMatrix>
<feOffset dy="161.771"></feOffset>
<feGaussianBlur stdDeviation="64.7086"></feGaussianBlur>
<feColorMatrix type="matrix" values="0 0 0 0 0 0 0 0 0 0 0 0 0 0 0 0 0 0 0.0323114 0"></feColorMatrix>
<feBlend mode="normal" in2="effect1_dropShadow_1824_4092" result="effect2_dropShadow_1824_4092"></feBlend>
<feColorMatrix in="SourceAlpha" type="matrix" values="0 0 0 0 0 0 0 0 0 0 0 0 0 0 0 0 0 0 127 0" result="hardAlpha"></feColorMatrix>
<feOffset dy="304.601"></feOffset>
<feGaussianBlur stdDeviation="121.84"></feGaussianBlur>
<feColorMatrix type="matrix" values="0 0 0 0 0 0 0 0 0 0 0 0 0 0 0 0 0 0 0.04 0"></feColorMatrix>
<feBlend mode="normal" in2="effect2_dropShadow_1824_4092" result="effect3_dropShadow_1824_4092"></feBlend>
<feColorMatrix in="SourceAlpha" type="matrix" values="0 0 0 0 0 0 0 0 0 0 0 0 0 0 0 0 0 0 127 0" result="hardAlpha"></feColorMatrix>
<feOffset dy="1459.57"></feOffset>
<feGaussianBlur stdDeviation="729.785"></feGaussianBlur>
<feColorMatrix type="matrix" values="0 0 0 0 0 0 0 0 0 0 0 0 0 0 0 0 0 0 0.0476886 0"></feColorMatrix>
<feBlend mode="normal" in2="effect3_dropShadow_1824_4092" result="effect4_dropShadow_1824_4092"></feBlend>
<feBlend mode="normal" in="SourceGraphic" in2="effect4_dropShadow_1824_4092" result="shape"></feBlend>
</filter>
<filter id="filter1_dddd_1824_4092" x="368.415" y="528.023" width="2966.53" height="2966.53" filterUnits="userSpaceOnUse" color-interpolation-filters="sRGB">
<feFlood flood-opacity="0" result="BackgroundImageFix"></feFlood>
<feColorMatrix in="SourceAlpha" type="matrix" values="0 0 0 0 0 0 0 0 0 0 0 0 0 0 0 0 0 0 127 0" result="hardAlpha"></feColorMatrix>
<feOffset dy="67.3167"></feOffset>
<feGaussianBlur stdDeviation="26.9267"></feGaussianBlur>
<feColorMatrix type="matrix" values="0 0 0 0 0 0 0 0 0 0 0 0 0 0 0 0 0 0 0.0224916 0"></feColorMatrix>
<feBlend mode="normal" in2="BackgroundImageFix" result="effect1_dropShadow_1824_4092"></feBlend>
<feColorMatrix in="SourceAlpha" type="matrix" values="0 0 0 0 0 0 0 0 0 0 0 0 0 0 0 0 0 0 127 0" result="hardAlpha"></feColorMatrix>
<feOffset dy="161.771"></feOffset>
<feGaussianBlur stdDeviation="64.7086"></feGaussianBlur>
<feColorMatrix type="matrix" values="0 0 0 0 0 0 0 0 0 0 0 0 0 0 0 0 0 0 0.0323114 0"></feColorMatrix>
<feBlend mode="normal" in2="effect1_dropShadow_1824_4092" result="effect2_dropShadow_1824_4092"></feBlend>
<feColorMatrix in="SourceAlpha" type="matrix" values="0 0 0 0 0 0 0 0 0 0 0 0 0 0 0 0 0 0 127 0" result="hardAlpha"></feColorMatrix>
<feOffset dy="304.601"></feOffset>
<feGaussianBlur stdDeviation="121.84"></feGaussianBlur>
<feColorMatrix type="matrix" values="0 0 0 0 0 0 0 0 0 0 0 0 0 0 0 0 0 0 0.04 0"></feColorMatrix>
<feBlend mode="normal" in2="effect2_dropShadow_1824_4092" result="effect3_dropShadow_1824_4092"></feBlend>
<feColorMatrix in="SourceAlpha" type="matrix" values="0 0 0 0 0 0 0 0 0 0 0 0 0 0 0 0 0 0 127 0" result="hardAlpha"></feColorMatrix>
<feOffset dy="1459.57"></feOffset>
<feGaussianBlur stdDeviation="729.785"></feGaussianBlur>
<feColorMatrix type="matrix" values="0 0 0 0 0 0 0 0 0 0 0 0 0 0 0 0 0 0 0.0476886 0"></feColorMatrix>
<feBlend mode="normal" in2="effect3_dropShadow_1824_4092" result="effect4_dropShadow_1824_4092"></feBlend>
<feBlend mode="normal" in="SourceGraphic" in2="effect4_dropShadow_1824_4092" result="shape"></feBlend>
</filter>
<linearGradient id="paint0_linear_1824_4092" x1="305.178" y1="1303.58" x2="2424.87" y2="1303.58" gradientUnits="userSpaceOnUse">
<stop stop-color="#F4F3F3"></stop>
<stop offset="1" stop-color="#F4F3F3" stop-opacity="0.4"></stop>
</linearGradient>
<clipPath id="clip0_1824_4092">
<rect width="2404" height="1796" rx="80.7838" fill="#04092D"></rect>
</clipPath>
</defs>
</svg>