<svg width="473" height="473" viewBox="0 0 473 473" fill="none" xmlns="http://www.w3.org/2000/svg">
<g clip-path="url(#clip0_1059_4235)">
<circle cx="235.895" cy="242.777" r="89.4545" stroke="#04092D"></circle>
<circle cx="235.895" cy="409.374" r="17.8566" stroke="#04092D"></circle>
<path d="M236.538 332.231C236.538 369.9 236.538 353.849 236.538 391.518" stroke="#04092D"></path>
<circle cx="17.8566" cy="17.8566" r="17.8566" transform="matrix(1 0 0 -1 218.039 94.0354)" stroke="#04092D"></circle>
<path d="M236.538 153.322C236.538 115.653 236.538 131.704 236.538 94.0354" stroke="#04092D"></path>
<circle cx="69.2979" cy="242.777" r="17.8566" transform="rotate(90 69.2979 242.777)" stroke="#04092D"></circle>
<path d="M146.441 243.419C108.772 243.419 124.823 243.419 87.1545 243.419" stroke="#04092D"></path>
<circle cx="17.8566" cy="17.8566" r="17.8566" transform="matrix(-4.37114e-08 1 1 4.37114e-08 384.637 224.92)" stroke="#04092D"></circle>
<path d="M325.35 243.419C363.019 243.419 346.968 243.419 384.637 243.419" stroke="#04092D"></path>
<circle cx="118.093" cy="360.579" r="17.8566" transform="rotate(45 118.093 360.579)" stroke="#04092D"></circle>
<path d="M173.096 306.485C146.46 333.121 157.81 321.771 131.174 348.407" stroke="#04092D"></path>
<circle cx="17.8566" cy="17.8566" r="17.8566" transform="matrix(0.707107 0.707107 0.707107 -0.707107 328.445 124.974)" stroke="#04092D"></circle>
<path d="M299.604 179.977C326.24 153.341 314.89 164.691 341.526 138.055" stroke="#04092D"></path>
<circle cx="118.093" cy="124.974" r="17.8566" transform="rotate(135 118.093 124.974)" stroke="#04092D"></circle>
<path d="M172.187 179.977C145.551 153.341 156.901 164.691 130.265 138.055" stroke="#04092D"></path>
<circle cx="17.8566" cy="17.8566" r="17.8566" transform="matrix(-0.707107 0.707107 0.707107 0.707107 353.698 335.326)" stroke="#04092D"></circle>
<path d="M298.695 306.485C325.331 333.121 313.981 321.771 340.617 348.407" stroke="#04092D"></path>
<circle cx="236.538" cy="245.133" r="9.43307" fill="#465CEE" stroke="#465CEE" stroke-width="1.13386"></circle>
</g>
<defs>
<clipPath id="clip0_1059_4235">
<rect width="472.627" height="472.627" rx="45.6645" fill="white"></rect>
</clipPath>
</defs>
</svg>