<svg width="473" height="473" viewBox="0 0 473 473" fill="none" xmlns="http://www.w3.org/2000/svg">
<circle cx="158.875" cy="291.299" r="109.47" stroke="#04092D"></circle>
<path d="M117.759 303.437V291.526H119.314V304.118C116.3 307.035 112.022 308.493 107.404 308.493C97.2431 308.493 89.7077 301.152 89.7077 291.283C89.7077 281.415 97.2431 274.074 107.404 274.074C112.168 274.074 116.397 275.532 119.363 278.546L118.391 279.664C115.328 276.699 111.633 275.581 107.452 275.581C98.2154 275.581 91.3607 282.387 91.3607 291.283C91.3607 300.18 98.2154 306.986 107.452 306.986C111.341 306.986 114.939 305.965 117.759 303.437ZM130.152 308.299V274.268H143.278C154.071 274.268 161.314 281.415 161.314 291.283C161.314 301.152 154.071 308.299 143.278 308.299H130.152ZM131.805 306.792H143.181C153.244 306.792 159.662 300.277 159.662 291.283C159.662 282.29 153.244 275.775 143.181 275.775H131.805V306.792ZM181.475 274.268C189.934 274.268 194.99 278.449 194.99 285.547C194.99 292.693 189.934 296.874 181.475 296.874H171.314V308.299H169.661V274.268H181.475ZM181.572 295.367C189.205 295.367 193.385 291.818 193.385 285.547C193.385 279.324 189.205 275.775 181.572 275.775H171.314V295.367H181.572ZM229.004 308.299H227.06L218.649 296.582C217.531 296.777 216.267 296.874 214.954 296.874H204.794V308.299H203.141V274.268H214.954C223.413 274.268 228.469 278.449 228.469 285.547C228.469 291.04 225.504 294.784 220.302 296.193L229.004 308.299ZM204.794 295.367H215.052C222.684 295.367 226.865 291.818 226.865 285.547C226.865 279.324 222.684 275.775 215.052 275.775H204.794V295.367Z" fill="#04092D"></path>
<path fill-rule="evenodd" clip-rule="evenodd" d="M315.174 71.3679C375.253 72.129 423.722 121.069 423.722 181.329L423.714 182.75C422.953 242.829 374.013 291.298 313.753 291.299L312.332 291.29C296.689 291.092 281.834 287.625 268.416 281.546C268.382 281.162 268.346 280.779 268.308 280.397C282.141 286.753 297.533 290.299 313.753 290.299C373.935 290.298 422.722 241.511 422.722 181.329C422.722 121.147 373.935 72.3594 313.753 72.3591C253.57 72.3591 204.783 121.147 204.783 181.329C204.783 184.779 204.944 188.192 205.258 191.56C204.909 191.398 204.559 191.237 204.209 191.078C203.967 188.33 203.827 185.552 203.792 182.75L203.782 181.329C203.782 120.594 253.018 71.3591 313.753 71.3591L315.174 71.3679Z" fill="#04092D"></path>
<path d="M266.288 198.523C256.274 198.523 248.738 191.182 248.738 181.314C248.738 171.445 256.274 164.104 266.288 164.104C270.907 164.104 275.136 165.611 278.102 168.625L277.081 169.695C274.067 166.778 270.372 165.611 266.337 165.611C257.246 165.611 250.391 172.417 250.391 181.314C250.391 190.21 257.246 197.016 266.337 197.016C270.372 197.016 274.067 195.801 277.081 192.884L278.102 193.953C275.136 197.016 270.907 198.523 266.288 198.523ZM298.005 164.298C306.464 164.298 311.52 168.479 311.52 175.577C311.52 182.723 306.464 186.904 298.005 186.904H287.845V198.329H286.192V164.298H298.005ZM298.102 185.397C305.735 185.397 309.916 181.848 309.916 175.577C309.916 169.354 305.735 165.805 298.102 165.805H287.845V185.397H298.102ZM345.535 198.329H343.59L335.18 186.613C334.062 186.807 332.798 186.904 331.485 186.904H321.324V198.329H319.672V164.298H331.485C339.944 164.298 345 168.479 345 175.577C345 181.07 342.034 184.814 336.833 186.224L345.535 198.329ZM321.324 185.397H331.582C339.215 185.397 343.396 181.848 343.396 175.577C343.396 169.354 339.215 165.805 331.582 165.805H321.324V185.397ZM379.336 198.329L374.767 188.363H354.397L349.827 198.329H348.028L363.78 164.298H365.384L381.135 198.329H379.336ZM355.029 186.953H374.135L364.606 166.194L355.029 186.953Z" fill="#04092D"></path>
<circle cx="203.782" cy="189.343" r="8.01412" fill="#04092D"></circle>
<circle cx="268.844" cy="279.272" r="8.01412" fill="#465CEE"></circle>
</svg>