<svg width="65" height="14" viewBox="0 0 65 14" fill="none" xmlns="http://www.w3.org/2000/svg">
<path d="M17.4234 3.94147C17.2442 3.73409 17.0337 3.56144 16.7935 3.4262C16.4473 3.23051 16.0519 3.13133 15.6187 3.13133C15.2489 3.13133 14.9012 3.20146 14.585 3.33904C14.2714 3.47629 13.9955 3.66629 13.7655 3.90473C13.5361 4.14248 13.3529 4.429 13.2222 4.75559C13.0908 5.0825 13.0238 5.44048 13.0238 5.8195C13.0238 6.19851 13.0905 6.55583 13.2222 6.88377C13.3535 7.21101 13.5361 7.4972 13.7655 7.73462C13.9948 7.97204 14.2704 8.16238 14.585 8.29962C14.8996 8.43723 15.2478 8.50733 15.6187 8.50733C16.0522 8.50733 16.4473 8.40817 16.7935 8.21246C17.0334 8.07756 17.2442 7.90527 17.4234 7.69723V8.39178H18.4948V3.24721H17.4234V3.94147ZM15.1151 7.34793C14.9127 7.2641 14.7366 7.14823 14.59 7.00232C14.4425 6.85604 14.3249 6.67939 14.2414 6.47735C14.1572 6.27465 14.1148 6.05293 14.1148 5.81917C14.1148 5.58541 14.1575 5.36434 14.2414 5.16098C14.3256 4.95829 14.4425 4.78164 14.59 4.63606C14.7366 4.49076 14.9134 4.37423 15.1151 4.29041C15.3176 4.20695 15.5385 4.16488 15.774 4.16488C16.0094 4.16488 16.231 4.20728 16.4328 4.29041C16.6352 4.37456 16.8097 4.49077 16.9525 4.63536C17.096 4.78029 17.2119 4.95697 17.2971 5.16131C17.3813 5.36467 17.4237 5.5861 17.4237 5.8195C17.4237 6.05293 17.381 6.27498 17.2971 6.47768C17.2125 6.6814 17.096 6.85838 16.9519 7.00396C16.8094 7.14889 16.6349 7.26476 16.4328 7.34858C16.033 7.51557 15.5183 7.51557 15.1155 7.34858L15.1151 7.34793Z" fill="#04092D"></path>
<path d="M23.7751 3.94162C23.5958 3.73424 23.3854 3.56159 23.1452 3.42635C22.7989 3.23066 22.4035 3.13149 21.9704 3.13149C21.6005 3.13149 21.2529 3.20161 20.9366 3.33919C20.623 3.47644 20.3472 3.66644 20.1171 3.90488C19.8878 4.14263 19.7045 4.42915 19.5738 4.75574C19.4424 5.08265 19.3754 5.44063 19.3754 5.81964C19.3754 6.19866 19.4421 6.55598 19.5738 6.88392C19.7052 7.21116 19.8878 7.49735 20.1171 7.73477C20.3465 7.97219 20.622 8.16252 20.9366 8.2998C21.2512 8.43737 21.5995 8.50748 21.9704 8.50748C22.4038 8.50748 22.7989 8.40832 23.1452 8.21261C23.385 8.07771 23.5958 7.90542 23.7751 7.69738V8.39197H24.8465V1.22472H23.7751V3.94162ZM21.4665 7.34807C21.264 7.26425 21.0878 7.14838 20.9414 7.00246C20.7938 6.85618 20.6763 6.67954 20.5927 6.4775C20.5085 6.2748 20.4661 6.05308 20.4661 5.81932C20.4661 5.58555 20.5088 5.36449 20.5927 5.16113C20.6769 4.95844 20.7938 4.78179 20.9414 4.6362C21.0878 4.49095 21.2647 4.37438 21.4665 4.29056C21.6689 4.2071 21.8898 4.16502 22.1253 4.16502C22.3607 4.16502 22.5824 4.20743 22.7841 4.29056C22.9865 4.37471 23.161 4.49095 23.3038 4.63551C23.4473 4.78047 23.5632 4.95712 23.6484 5.16146C23.7326 5.36486 23.7751 5.58625 23.7751 5.81964C23.7751 6.05308 23.7323 6.27513 23.6484 6.47783C23.5639 6.68155 23.4473 6.85853 23.3031 7.00411C23.1607 7.14903 22.9862 7.26491 22.7841 7.34873C22.3836 7.51572 21.8696 7.51572 21.4668 7.34873L21.4665 7.34807Z" fill="#04092D"></path>
<path d="M30.1261 3.94162C29.9469 3.73424 29.7364 3.56159 29.4962 3.42635C29.15 3.23066 28.7545 3.13149 28.3214 3.13149C27.9515 3.13149 27.6039 3.20161 27.2876 3.33919C26.9741 3.47644 26.6982 3.66644 26.4681 3.90488C26.2388 4.14263 26.0555 4.42915 25.9248 4.75574C25.7935 5.08265 25.7265 5.44063 25.7265 5.81964C25.7265 6.19866 25.7932 6.55598 25.9248 6.88392C26.0562 7.21116 26.2388 7.49735 26.4681 7.73477C26.6975 7.97219 26.973 8.16252 27.2876 8.2998C27.6023 8.43737 27.9505 8.50748 28.3214 8.50748C28.7548 8.50748 29.15 8.40832 29.4962 8.21261C29.736 8.07771 29.9469 7.90542 30.1261 7.69738V8.39197H31.1975V1.22472H30.1261V3.94162ZM27.8175 7.34807C27.615 7.26425 27.4389 7.14838 27.2924 7.00246C27.1448 6.85618 27.0273 6.67954 26.9437 6.4775C26.8596 6.2748 26.8171 6.05308 26.8171 5.81932C26.8171 5.58555 26.8599 5.36449 26.9437 5.16113C27.028 4.95844 27.1448 4.78179 27.2924 4.6362C27.4389 4.49095 27.6157 4.37438 27.8175 4.29056C28.0199 4.2071 28.2409 4.16502 28.4763 4.16502C28.7117 4.16502 28.9334 4.20743 29.1351 4.29056C29.3375 4.37471 29.512 4.49095 29.6548 4.63551C29.7983 4.78047 29.9142 4.95712 29.9994 5.16146C30.0837 5.36486 30.1261 5.58625 30.1261 5.81964C30.1261 6.05308 30.0833 6.27513 29.9994 6.47783C29.9149 6.68155 29.7983 6.85853 29.6542 7.00411C29.5117 7.14903 29.3372 7.26491 29.1351 7.34873C28.7353 7.51572 28.2213 7.51572 27.8178 7.34873L27.8175 7.34807Z" fill="#04092D"></path>
<path d="M33.4508 3.24677H32.3794V8.39134H33.4508V3.24677Z" fill="#04092D"></path>
<path d="M32.4296 1.35431C32.2999 1.47987 32.2336 1.64082 32.2336 1.83317C32.2336 2.02552 32.2992 2.17746 32.4282 2.30569C32.5579 2.43425 32.7216 2.49937 32.9153 2.49937C33.109 2.49937 33.2629 2.43392 33.3912 2.30569C33.5209 2.17812 33.5866 2.01917 33.5866 1.83317C33.5866 1.64717 33.5202 1.4792 33.3905 1.35431C33.1285 1.10219 32.6856 1.1102 32.4296 1.35431Z" fill="#04092D"></path>
<path d="M38.9038 3.71443C38.7183 3.53076 38.4929 3.38583 38.2324 3.28398C37.9723 3.18247 37.6803 3.13104 37.3634 3.13104C36.9581 3.13104 36.5891 3.21486 36.2657 3.38016C36.0478 3.49169 35.8565 3.63595 35.6948 3.81091V3.24692H34.6234V8.39152H35.6948V5.52067C35.6948 5.31198 35.7281 5.1223 35.7938 4.95667C35.8585 4.79371 35.9518 4.65178 36.072 4.53558C36.1926 4.41901 36.3402 4.32721 36.5123 4.26307C36.6858 4.19761 36.8805 4.16457 37.092 4.16457C37.5087 4.16457 37.8274 4.28209 38.0656 4.52387C38.3016 4.76363 38.4208 5.09223 38.4208 5.50132V8.39152H39.4921V5.24118C39.4921 4.92593 39.4402 4.63608 39.3381 4.37964C39.2353 4.12147 39.0893 3.89774 38.9038 3.71443Z" fill="#04092D"></path>
<path d="M44.7129 3.93648C44.5344 3.73214 44.3232 3.56148 44.0836 3.42591C43.7375 3.23022 43.3387 3.13104 42.8985 3.13104C42.5293 3.13104 42.1817 3.19916 41.866 3.3334C41.5513 3.46765 41.2758 3.65465 41.0457 3.88907C40.8163 4.12349 40.6333 4.40532 40.502 4.72591C40.3706 5.04715 40.3033 5.3988 40.3033 5.77145C40.3033 6.14413 40.3703 6.49542 40.502 6.81699C40.6333 7.1379 40.8163 7.41908 41.0457 7.65317C41.2758 7.88825 41.5517 8.07492 41.866 8.20883C42.1806 8.34308 42.5275 8.4112 42.8985 8.4112C43.3379 8.4112 43.7367 8.3137 44.0829 8.12201C44.3232 7.98879 44.5344 7.81914 44.7129 7.61545V8.00112C44.7129 8.24257 44.6749 8.46696 44.5995 8.66801C44.5245 8.86669 44.4184 9.03635 44.2856 9.17092C44.152 9.30582 43.9859 9.41335 43.792 9.49081C43.5955 9.56863 43.3763 9.60771 43.1411 9.60771C42.7895 9.60771 42.4821 9.53087 42.226 9.37896C41.9747 9.22902 41.7932 9.01996 41.6871 8.75718L41.6578 8.68338H40.5433L40.5905 8.83497C40.7599 9.37727 41.068 9.81238 41.5082 10.1276C41.9476 10.4429 42.4964 10.6025 43.1407 10.6025C43.5355 10.6025 43.8981 10.5397 44.2179 10.4162C44.5391 10.2919 44.8201 10.1149 45.0539 9.8902C45.2884 9.66379 45.4706 9.38763 45.5961 9.06906C45.7209 8.75184 45.7842 8.39584 45.7842 8.01082V3.24725H44.7125L44.7129 3.93648ZM42.4049 7.30021C42.2026 7.21638 42.0262 7.10051 41.8799 6.9546C41.7328 6.80967 41.6157 6.63302 41.5312 6.4293C41.4471 6.22726 41.4046 6.00587 41.4046 5.77145C41.4046 5.53703 41.4474 5.31765 41.5312 5.11828C41.6154 4.91792 41.7328 4.74296 41.8799 4.59767C42.0262 4.45208 42.2026 4.33588 42.4049 4.25239C42.6058 4.16889 42.8272 4.12682 43.0639 4.12682C43.3002 4.12682 43.5212 4.16926 43.7225 4.25239C43.9237 4.33588 44.099 4.45175 44.2424 4.59734C44.3858 4.74226 44.5018 4.91792 44.5867 5.11828C44.6705 5.31798 44.7133 5.53769 44.7133 5.77145C44.7133 6.00521 44.6705 6.22693 44.5867 6.4293C44.5018 6.63368 44.3858 6.81066 44.2424 6.95591C44.099 7.10117 43.9237 7.21704 43.7225 7.30054C43.3182 7.46752 42.8096 7.46752 42.4053 7.30054L42.4049 7.30021Z" fill="#04092D"></path>
<path d="M54.0052 3.24677L52.6316 6.92438L51.2764 3.24677H50.2468L48.8817 6.9531L47.5265 3.32325L47.4983 3.24677H46.3703L48.3443 8.39134H49.3815L50.747 4.80257L52.1125 8.39134H53.149L55.1237 3.24677H54.0052Z" fill="#04092D"></path>
<path d="M59.8268 3.90147C59.5794 3.66372 59.286 3.47404 58.9538 3.33813C58.285 3.06397 57.4445 3.06397 56.7761 3.33813C56.4439 3.47438 56.1504 3.66405 55.9038 3.90147C55.6565 4.13959 55.4611 4.42607 55.3235 4.75368C55.1849 5.08059 55.115 5.4389 55.115 5.8196C55.115 6.20026 55.1852 6.5586 55.3235 6.88552C55.4618 7.21342 55.6572 7.50027 55.9038 7.73806C56.1493 7.97482 56.4431 8.16416 56.7757 8.30071C57.109 8.43799 57.4753 8.50743 57.8653 8.50743C58.1671 8.50743 58.4566 8.46704 58.7248 8.38687C58.9944 8.30674 59.2432 8.19321 59.4638 8.04993C59.6859 7.90702 59.8839 7.73272 60.0533 7.531C60.223 7.33032 60.3591 7.10625 60.4605 6.8658L60.5285 6.70386H59.3511L59.3171 6.76229C59.1865 6.98636 58.9929 7.169 58.7409 7.30559C58.4884 7.44286 58.1939 7.51264 57.8653 7.51264C57.6531 7.51264 57.4544 7.47956 57.2744 7.41345C57.0937 7.34799 56.9316 7.25484 56.7914 7.13596C56.6509 7.01775 56.532 6.87282 56.4387 6.7062C56.3667 6.57628 56.3107 6.43435 56.2726 6.28277H60.582L60.5948 6.17992C60.6017 6.12547 60.6068 6.06503 60.6101 5.99892C60.6134 5.93214 60.6153 5.87203 60.6153 5.81894C60.6153 5.43857 60.545 5.07994 60.4067 4.75335C60.2691 4.42607 60.0738 4.13922 59.8271 3.90081L59.8268 3.90147ZM56.2851 5.30733C56.3773 4.97507 56.5511 4.6999 56.8046 4.4882C57.0959 4.24441 57.4427 4.12619 57.8649 4.12619C58.0709 4.12619 58.2667 4.15795 58.447 4.2207C58.6282 4.28316 58.7906 4.37368 58.9304 4.48853C59.0709 4.60407 59.1916 4.74464 59.2882 4.90596C59.3614 5.02882 59.417 5.16343 59.4558 5.307H56.2847L56.2851 5.30733Z" fill="#04092D"></path>
<path d="M62.5186 1.40955H61.447V8.39178H62.5186V1.40955Z" fill="#04092D"></path>
<path d="M64.7623 1.40955H63.6907V8.39178H64.7623V1.40955Z" fill="#04092D"></path>
<path d="M5.53673 0C2.47969 0 0.000991821 2.45709 0.000991821 5.48821C0.000991821 8.51934 2.47969 10.9764 5.53673 10.9764C8.59377 10.9764 11.0725 8.51934 11.0725 5.48821C11.0725 2.45709 8.5941 0 5.53673 0ZM1.72621 8.20176L1.73565 8.18039L4.80917 1.36479H6.01636L6.00692 1.38616L2.9334 8.20176H1.72621ZM8.58232 8.20176H7.40206L7.39902 8.19042L6.9386 6.3875H5.15577L5.15274 6.37612L4.8762 5.30889H6.66272L6.19926 3.49429H7.37948L7.38252 3.50564L7.84298 5.30856H9.62544L9.62848 5.3199L9.90501 6.38718H8.11816L8.58162 8.20176H8.58232Z" fill="#04092D"></path>
<path fill-rule="evenodd" clip-rule="evenodd" d="M51.5015 13.425C51.5015 13.445 51.5177 13.4613 51.5378 13.4613H52.5354C52.7785 13.4613 52.9943 13.4154 53.1821 13.3226L53.1824 13.3225C53.3699 13.2277 53.5172 13.0957 53.6234 12.9267L53.6235 12.9265C53.7301 12.7547 53.7827 12.5544 53.7827 12.327C53.7827 12.0975 53.7301 11.8971 53.6234 11.7273C53.5172 11.5582 53.3698 11.4272 53.1822 11.3345C52.9944 11.2395 52.7785 11.1926 52.5354 11.1926H51.5378C51.5177 11.1926 51.5015 11.2089 51.5015 11.2289V13.425ZM53.1097 12.6693L53.1094 12.6697C53.0544 12.7659 52.9761 12.8405 52.8733 12.8939C52.7728 12.9451 52.6522 12.9714 52.5103 12.9714H52.0823V11.6825H52.5103C52.6521 11.6825 52.7725 11.7098 52.8729 11.763L52.8733 11.7631L52.8737 11.7633C52.9762 11.8146 53.0545 11.8881 53.1094 11.9842L53.1096 11.9845L53.1098 11.9849C53.1665 12.0787 53.1956 12.1921 53.1956 12.327C53.1956 12.4595 53.1665 12.5732 53.1097 12.6693Z" fill="#04092D"></path>
<path d="M54.2492 13.425C54.2492 13.445 54.2654 13.4613 54.2855 13.4613H54.7937C54.8138 13.4613 54.83 13.445 54.83 13.425V11.2289C54.83 11.2089 54.8138 11.1926 54.7937 11.1926C54.493 11.1926 54.2491 11.4364 54.2491 11.7371C54.249 12.2998 54.2492 12.8624 54.2492 13.425Z" fill="#04092D"></path>
<path fill-rule="evenodd" clip-rule="evenodd" d="M55.4229 13.425C55.4229 13.445 55.4391 13.4613 55.4592 13.4613H56.4568C56.6999 13.4613 56.9157 13.4154 57.1035 13.3226L57.1038 13.3225C57.2913 13.2277 57.4386 13.0957 57.5448 12.9267L57.5449 12.9265C57.6515 12.7547 57.7041 12.5544 57.7041 12.327C57.7041 12.0975 57.6515 11.8971 57.5448 11.7273C57.4386 11.5582 57.2912 11.4272 57.1037 11.3345C56.9159 11.2395 56.6999 11.1926 56.4568 11.1926H55.4592C55.4391 11.1926 55.4229 11.2089 55.4229 11.2289V13.425ZM56.7951 11.7633C56.8977 11.8146 56.9759 11.8881 57.0308 11.9842L57.031 11.9845L57.0313 11.9849C57.0879 12.0787 57.117 12.1921 57.117 12.327C57.117 12.4595 57.0879 12.5732 57.0311 12.6693L57.0308 12.6697C56.9759 12.7659 56.8975 12.8405 56.7947 12.8939C56.6942 12.9451 56.5736 12.9714 56.4317 12.9714H56.0037V11.6825H56.4317C56.5735 11.6825 56.6939 11.7098 56.7944 11.763L56.7947 11.7631L56.7951 11.7633Z" fill="#04092D"></path>
<path fill-rule="evenodd" clip-rule="evenodd" d="M58.8951 13.3945L58.8953 13.3946C59.0458 13.4518 59.2086 13.4802 59.3832 13.4802C59.5559 13.4802 59.7157 13.4518 59.8622 13.3944C60.0102 13.3373 60.1387 13.2578 60.2472 13.1556C60.3578 13.0515 60.4439 12.9292 60.5055 12.789L60.5056 12.7888C60.5673 12.6461 60.598 12.492 60.598 12.327C60.598 12.16 60.5674 12.0068 60.5055 11.868C60.4439 11.7279 60.3578 11.6056 60.2474 11.5015C60.1388 11.3973 60.0103 11.3166 59.8622 11.2595C59.7156 11.2021 59.5548 11.1737 59.3802 11.1737C59.2075 11.1737 59.0467 11.2022 58.8982 11.2595C58.7501 11.3166 58.6205 11.3972 58.51 11.5014C58.3994 11.6056 58.3133 11.7279 58.2517 11.8681L58.2515 11.8685C58.1919 12.0091 58.1623 12.1621 58.1623 12.327C58.1623 12.4918 58.1919 12.6448 58.2515 12.7855L58.2517 12.7859C58.3133 12.9259 58.3982 13.0481 58.5066 13.1523L58.5069 13.1525C58.6174 13.2567 58.747 13.3373 58.8951 13.3945ZM59.6315 12.9339L59.6312 12.934C59.556 12.9649 59.4725 12.9806 59.3802 12.9806C59.2878 12.9806 59.2031 12.9649 59.1257 12.9339C59.0482 12.9029 58.9806 12.8584 58.9225 12.8005C58.8666 12.7425 58.8219 12.6738 58.7887 12.5939C58.7577 12.5122 58.742 12.4234 58.742 12.327C58.742 12.2283 58.7578 12.1396 58.7887 12.0602C58.8218 11.9804 58.8674 11.9117 58.9254 11.8537C58.9836 11.7955 59.0503 11.751 59.1258 11.72C59.2033 11.689 59.2879 11.6734 59.3802 11.6734C59.4725 11.6734 59.5572 11.6891 59.6346 11.7201C59.7121 11.7511 59.7786 11.7955 59.8345 11.8532L59.8349 11.8537C59.8928 11.9116 59.9373 11.9802 59.9684 12.0599C59.9685 12.0601 59.9686 12.0603 59.9687 12.0606C60.0016 12.1398 60.0183 12.2285 60.0183 12.327C60.0183 12.4255 60.0016 12.5141 59.9687 12.5934C59.9686 12.5936 59.9685 12.5938 59.9684 12.5941C59.9373 12.6738 59.8928 12.7424 59.8349 12.8003C59.7769 12.8583 59.7092 12.9028 59.6315 12.9339Z" fill="#04092D"></path>
<path d="M61.0437 13.425C61.0437 13.445 61.0599 13.4613 61.08 13.4613H61.5569C61.5769 13.4613 61.5932 13.445 61.5932 13.425V12.2649L62.169 13.2117C62.1756 13.2225 62.1873 13.2291 62.2 13.2291H62.429C62.4418 13.2291 62.4537 13.2224 62.4602 13.2114L63.0396 12.2384L63.0421 13.4251C63.0422 13.4451 63.0584 13.4613 63.0784 13.4613H63.5553C63.5649 13.4613 63.5742 13.4575 63.581 13.4506C63.5878 13.4438 63.5916 13.4345 63.5916 13.4249V11.2288C63.5915 11.2088 63.5753 11.1926 63.5553 11.1926H63.1318C63.1189 11.1926 63.1071 11.1994 63.1005 11.2104L62.3227 12.5218L61.5315 11.2102C61.5249 11.1993 61.5131 11.1926 61.5004 11.1926H61.08C61.0599 11.1926 61.0437 11.2089 61.0437 11.2289V13.425Z" fill="#04092D"></path>
<path d="M64.1805 13.425C64.1805 13.445 64.1968 13.4613 64.2168 13.4613H64.7251C64.7451 13.4613 64.7614 13.445 64.7614 13.425V11.2289C64.7614 11.2088 64.7451 11.1926 64.7251 11.1926C64.4243 11.1926 64.1805 11.4364 64.1805 11.7371C64.1805 12.2997 64.1805 12.8623 64.1805 13.425Z" fill="#04092D"></path>
<path d="M49.3036 14.0001C49.2371 14.0001 49.1723 13.9887 49.1093 13.966C49.0463 13.945 48.992 13.9134 48.9465 13.8714L49.0542 13.6823C49.0892 13.7156 49.1277 13.741 49.1697 13.7585C49.2117 13.776 49.2564 13.7848 49.3036 13.7848C49.3649 13.7848 49.4157 13.769 49.456 13.7375C49.4962 13.706 49.5339 13.65 49.5689 13.5694L49.6556 13.3777L49.6818 13.3462L50.2281 12.083H50.4749L49.8 13.6141C49.7597 13.7121 49.7142 13.7891 49.6634 13.8452C49.6144 13.9012 49.5601 13.9406 49.5006 13.9633C49.4411 13.9879 49.3754 14.0001 49.3036 14.0001ZM49.6345 13.5195L48.999 12.083H49.2616L49.8026 13.3226L49.6345 13.5195Z" fill="#04092D"></path>
<path d="M48.2295 13.4907C48.1105 13.4907 48.0028 13.4644 47.9065 13.4119C47.812 13.3576 47.7367 13.278 47.6806 13.1729C47.6264 13.0679 47.5992 12.9366 47.5992 12.779C47.5992 12.6214 47.6272 12.4901 47.6833 12.3851C47.741 12.28 47.8172 12.2012 47.9118 12.1487C48.008 12.0962 48.114 12.0699 48.2295 12.0699C48.3661 12.0699 48.4869 12.0997 48.5919 12.1592C48.697 12.2187 48.7801 12.3019 48.8414 12.4087C48.9027 12.5137 48.9333 12.6372 48.9333 12.779C48.9333 12.9208 48.9027 13.0451 48.8414 13.1519C48.7801 13.2587 48.697 13.3419 48.5919 13.4014C48.4869 13.4609 48.3661 13.4907 48.2295 13.4907ZM47.4916 13.4749V11.5263H47.7437V12.4533L47.7174 12.7764L47.7332 13.0994V13.4749H47.4916ZM48.2085 13.2701C48.2978 13.2701 48.3775 13.25 48.4475 13.2097C48.5193 13.1694 48.5753 13.1125 48.6156 13.039C48.6576 12.9637 48.6786 12.877 48.6786 12.779C48.6786 12.6792 48.6576 12.5934 48.6156 12.5216C48.5753 12.4481 48.5193 12.3912 48.4475 12.3509C48.3775 12.3107 48.2978 12.2905 48.2085 12.2905C48.121 12.2905 48.0413 12.3107 47.9695 12.3509C47.8995 12.3912 47.8435 12.4481 47.8015 12.5216C47.7612 12.5934 47.741 12.6792 47.741 12.779C47.741 12.877 47.7612 12.9637 47.8015 13.039C47.8435 13.1125 47.8995 13.1694 47.9695 13.2097C48.0413 13.25 48.121 13.2701 48.2085 13.2701Z" fill="#04092D"></path>
</svg>