<svg width="45" height="8" viewBox="0 0 45 8" fill="none" xmlns="http://www.w3.org/2000/svg">
<path fill-rule="evenodd" clip-rule="evenodd" d="M0 7.80851C0 7.87805 0.0563721 7.93442 0.125911 7.93442H3.58622C4.4292 7.93442 5.17793 7.77537 5.82919 7.45349L5.83022 7.45296C6.48051 7.12408 6.99154 6.66639 7.35989 6.08004L7.36027 6.07943C7.72976 5.48373 7.91238 4.78904 7.91238 3.99999C7.91238 3.20399 7.72989 2.50891 7.35989 1.91994C6.99148 1.33349 6.48027 0.879295 5.8297 0.557642C5.17833 0.228325 4.42939 0.065567 3.58622 0.065567H0.125911C0.0563721 0.065567 0 0.121939 0 0.191478V7.80851ZM5.57799 5.18723L5.57702 5.18889C5.38645 5.52239 5.11461 5.78126 4.75819 5.96641C4.40954 6.14405 3.99125 6.23536 3.49917 6.23536H2.01462V1.76462H3.49917C3.99077 1.76462 4.40857 1.85938 4.75691 2.04379L4.75818 2.04445L4.75952 2.04513C5.11522 2.22298 5.38662 2.47789 5.57702 2.81109L5.5777 2.81226L5.57857 2.81373C5.77495 3.13877 5.876 3.53241 5.876 3.99999C5.876 4.45986 5.77515 4.8541 5.57799 5.18723Z" fill="#04092D"></path>
<path d="M9.45362 7.80851C9.45362 7.87805 9.51 7.93442 9.57953 7.93442H11.3423C11.4119 7.93442 11.4682 7.87805 11.4682 7.80851V0.191478C11.4682 0.121939 11.4119 0.065567 11.3423 0.065567C10.2991 0.065567 9.4533 0.911046 9.45321 1.95426C9.45306 3.90568 9.45362 5.85709 9.45362 7.80851Z" fill="#04092D"></path>
<path fill-rule="evenodd" clip-rule="evenodd" d="M13.2734 7.80851C13.2734 7.87805 13.3297 7.93442 13.3993 7.93442H16.8596C17.7026 7.93442 18.4513 7.77537 19.1025 7.45349L19.1036 7.45296C19.7539 7.12408 20.2649 6.66639 20.6333 6.08004L20.6336 6.07943C21.0031 5.48373 21.1857 4.78904 21.1857 3.99999C21.1857 3.20399 21.0032 2.50891 20.6333 1.91994C20.2648 1.33349 19.7536 0.879295 19.1031 0.557642C18.4517 0.228325 17.7027 0.065567 16.8596 0.065567H13.3993C13.3297 0.065567 13.2734 0.121939 13.2734 0.191478V7.80851ZM18.0329 2.04513C18.3886 2.22298 18.66 2.47789 18.8504 2.81109L18.851 2.81221L18.8519 2.81373C19.0483 3.13877 19.1494 3.53241 19.1494 3.99999C19.1494 4.45986 19.0485 4.8541 18.8513 5.18723L18.8504 5.18889C18.6598 5.52239 18.388 5.78126 18.0316 5.96641C17.6829 6.14405 17.2646 6.23536 16.7725 6.23536H15.288V1.76462H16.7725C17.2641 1.76462 17.6819 1.85938 18.0303 2.04379L18.0315 2.04445L18.0329 2.04513Z" fill="#04092D"></path>
<path fill-rule="evenodd" clip-rule="evenodd" d="M25.1042 7.70261L25.1048 7.70283C25.6268 7.90137 26.1914 7.99998 26.7973 7.99998C27.3961 7.99998 27.9504 7.90134 28.4586 7.70246C28.9719 7.50441 29.4176 7.22852 29.794 6.87419C30.1774 6.5129 30.4762 6.08862 30.6898 5.60241L30.6901 5.60176C30.9042 5.10687 31.0108 4.57245 31.0108 3.99999C31.0108 3.42082 30.9044 2.88948 30.6896 2.40793C30.4761 1.92205 30.1776 1.49807 29.7945 1.13695C29.4181 0.775336 28.9722 0.49566 28.4586 0.297478C27.9501 0.0985506 27.3923 0 26.7866 0C26.1877 0 25.63 0.0986635 25.1149 0.297366C24.6011 0.495558 24.1518 0.775185 23.7684 1.13653C23.385 1.49783 23.0863 1.92205 22.8727 2.40826L22.8721 2.40976C22.6651 2.89756 22.5624 3.42815 22.5624 3.99999C22.5624 4.57183 22.6651 5.10242 22.8721 5.59021L22.8727 5.59172C23.0861 6.07738 23.3809 6.50134 23.7568 6.86258L23.7577 6.86344C24.1412 7.22479 24.5904 7.50442 25.1042 7.70261ZM27.6585 6.10507L27.6574 6.1055C27.3966 6.21253 27.1068 6.26699 26.7866 6.26699C26.4664 6.26699 26.1726 6.21254 25.904 6.10508C25.6351 5.9975 25.4006 5.84337 25.1994 5.64236C25.0053 5.44137 24.8505 5.20294 24.7353 4.92567C24.6277 4.64259 24.5733 4.33442 24.5733 3.99999C24.5733 3.65786 24.6279 3.35 24.7351 3.07478C24.8501 2.79785 25.0082 2.5595 25.2093 2.35839C25.4111 2.15659 25.6426 2.00225 25.9045 1.89469C26.173 1.78736 26.4666 1.73298 26.7866 1.73298C27.1068 1.73298 27.4005 1.78743 27.6692 1.8949C27.9381 2.00246 28.1686 2.15642 28.3623 2.35683L28.3639 2.35839C28.5647 2.55923 28.7191 2.79714 28.8269 3.07353C28.8272 3.07436 28.8276 3.0752 28.8279 3.07603C28.9419 3.35088 28.9999 3.65827 28.9999 3.99999C28.9999 4.3417 28.9419 4.6491 28.8279 4.92395C28.8276 4.92478 28.8272 4.92561 28.8269 4.92645C28.7191 5.20284 28.5647 5.44074 28.3639 5.64159C28.1625 5.84297 27.9277 5.99736 27.6585 6.10507Z" fill="#04092D"></path>
<path d="M32.3867 7.80851C32.3867 7.87805 32.4431 7.93442 32.5126 7.93442H34.1666C34.2361 7.93442 34.2925 7.87805 34.2925 7.80851V3.78458L36.2897 7.0687C36.3126 7.10626 36.3533 7.12919 36.3973 7.12919H37.1916C37.236 7.12919 37.2771 7.10583 37.2998 7.06769L39.3094 3.69267L39.3182 7.80878C39.3183 7.87821 39.3747 7.93442 39.4441 7.93442H41.0981C41.1315 7.93442 41.1636 7.9211 41.1873 7.89741C41.2109 7.87372 41.2241 7.8416 41.224 7.80815V0.191118C41.2238 0.12172 41.1675 0.065567 41.0981 0.065567H39.6291C39.5846 0.065567 39.5435 0.08901 39.5208 0.127246L36.8229 4.67587L34.0785 0.126441C34.0557 0.0886612 34.0148 0.065567 33.9707 0.065567H32.5126C32.4431 0.065567 32.3867 0.121939 32.3867 0.191478V7.80851Z" fill="#04092D"></path>
<path d="M42.9854 7.80851C42.9854 7.87805 43.0418 7.93442 43.1113 7.93442H44.8741C44.9436 7.93442 45 7.87805 45 7.80851V0.191478C45 0.121939 44.9436 0.065567 44.8741 0.065567C43.831 0.065567 42.9854 0.911174 42.9854 1.95428C42.9854 3.90569 42.9854 5.8571 42.9854 7.80851Z" fill="#04092D"></path>
</svg>