<svg width="720" height="128" viewBox="0 0 720 128" fill="none" xmlns="http://www.w3.org/2000/svg">
<path fill-rule="evenodd" clip-rule="evenodd" d="M0 124.936C0 126.049 0.901953 126.951 2.01457 126.951H57.3795C70.8671 126.951 82.8469 124.406 93.267 119.256L93.2835 119.247C103.688 113.985 111.865 106.662 117.758 97.2807L117.764 97.2709C123.676 87.7397 126.598 76.6246 126.598 63.9999C126.598 51.2638 123.678 40.1426 117.758 30.7191C111.864 21.3358 103.684 14.0687 93.2752 8.92228C82.8532 3.6532 70.8703 1.04907 57.3795 1.04907H2.01457C0.901953 1.04907 0 1.95103 0 3.06364V124.936ZM89.2478 82.9957L89.2324 83.0223C86.1833 88.3582 81.8338 92.5001 76.1311 95.4625C70.5527 98.3048 63.8599 99.7658 55.9867 99.7658H32.2339V28.234H55.9867C63.8523 28.234 70.5371 29.75 76.1106 32.7007L76.1308 32.7112L76.1523 32.7221C81.8435 35.5677 86.186 39.6463 89.2324 44.9775L89.2432 44.9962L89.2572 45.0197C92.3992 50.2204 94.0159 56.5185 94.0159 63.9999C94.0159 71.3577 92.4024 77.6656 89.2478 82.9957Z" fill="#04092D"></path>
<path d="M151.257 124.936C151.257 126.049 152.159 126.951 153.272 126.951H181.476C182.589 126.951 183.491 126.049 183.491 124.936V3.06364C183.491 1.95103 182.589 1.04907 181.476 1.04907C164.785 1.04907 151.252 14.5767 151.25 31.2682C151.248 62.4908 151.257 93.7135 151.257 124.936Z" fill="#04092D"></path>
<path fill-rule="evenodd" clip-rule="evenodd" d="M212.373 124.936C212.373 126.049 213.275 126.951 214.388 126.951H269.753C283.24 126.951 295.22 124.406 305.64 119.256L305.657 119.247C316.061 113.985 324.238 106.662 330.131 97.2807L330.137 97.2709C336.049 87.7397 338.971 76.6246 338.971 63.9999C338.971 51.2638 336.051 40.1426 330.131 30.7191C324.237 21.3358 316.057 14.0687 305.648 8.92228C295.226 3.6532 283.243 1.04907 269.753 1.04907H214.388C213.275 1.04907 212.373 1.95103 212.373 3.06364V124.936ZM288.525 32.7221C294.217 35.5677 298.559 39.6463 301.605 44.9775L301.616 44.9954L301.63 45.0197C304.772 50.2204 306.389 56.5185 306.389 63.9999C306.389 71.3577 304.775 77.6656 301.621 82.9957L301.605 83.0223C298.556 88.3582 294.207 92.5001 288.504 95.4625C282.926 98.3048 276.233 99.7658 268.36 99.7658H244.607V28.234H268.36C276.225 28.234 282.91 29.75 288.484 32.7007L288.504 32.7112L288.525 32.7221Z" fill="#04092D"></path>
<path fill-rule="evenodd" clip-rule="evenodd" d="M401.667 123.242L401.676 123.245C410.029 126.422 419.062 128 428.756 128C438.337 128 447.205 126.422 455.337 123.239C463.55 120.071 470.68 115.656 476.703 109.987C482.837 104.206 487.618 97.4179 491.036 89.6386L491.04 89.6282C494.467 81.7099 496.171 73.1592 496.171 63.9998C496.171 54.7331 494.47 46.2317 491.033 38.5268C487.617 30.7528 482.841 23.9692 476.711 18.1913C470.688 12.4054 463.554 7.93057 455.336 4.75965C447.201 1.57681 438.276 0 428.585 0C419.002 0 410.079 1.57862 401.838 4.75785C393.617 7.92894 386.429 12.403 380.294 18.1845C374.16 23.9652 369.38 30.7528 365.962 38.5321L365.952 38.5562C362.641 46.3609 360.998 54.8504 360.998 63.9998C360.998 73.1492 362.641 81.6387 365.952 89.4434L365.962 89.4675C369.377 97.2381 374.093 104.021 380.108 109.801L380.123 109.815C386.258 115.597 393.446 120.071 401.667 123.242ZM442.535 97.6812L442.518 97.688C438.344 99.4005 433.709 100.272 428.585 100.272C423.461 100.272 418.762 99.4007 414.463 97.6812C410.161 95.9601 406.408 93.4939 403.189 90.2777C400.084 87.062 397.607 83.2471 395.764 78.8107C394.043 74.2814 393.172 69.3508 393.172 63.9998C393.172 58.5257 394.045 53.5999 395.761 49.1965C397.6 44.7655 400.131 40.952 403.348 37.7342C406.576 34.5055 410.28 32.036 414.471 30.3151C418.768 28.5978 423.465 27.7277 428.585 27.7277C433.708 27.7277 438.408 28.5989 442.706 30.3184C447.008 32.0393 450.697 34.5027 453.797 37.7093L453.821 37.7342C457.034 40.9478 459.504 44.7542 461.23 49.1764C461.235 49.1898 461.24 49.2032 461.246 49.2165C463.069 53.6141 463.998 58.5323 463.998 63.9998C463.998 69.4673 463.069 74.3855 461.246 78.7831C461.24 78.7964 461.235 78.8098 461.23 78.8232C459.504 83.2454 457.034 87.0519 453.821 90.2654C450.599 93.4876 446.843 95.9578 442.535 97.6812Z" fill="#04092D"></path>
<path d="M518.188 124.936C518.188 126.049 519.089 126.951 520.202 126.951H546.666C547.778 126.951 548.68 126.049 548.68 124.936V60.5533L580.636 113.099C581.001 113.7 581.654 114.067 582.357 114.067H595.067C595.777 114.067 596.434 113.693 596.798 113.083L628.95 59.0828L629.091 124.94C629.094 126.051 629.995 126.951 631.106 126.951H657.57C658.105 126.951 658.618 126.738 658.996 126.359C659.374 125.98 659.586 125.466 659.584 124.93V3.05789C659.581 1.94752 658.68 1.04907 657.57 1.04907H634.066C633.354 1.04907 632.696 1.42416 632.333 2.03594L589.167 74.8139L545.257 2.02305C544.892 1.41858 544.238 1.04907 543.532 1.04907H520.202C519.089 1.04907 518.188 1.95103 518.188 3.06364V124.936Z" fill="#04092D"></path>
<path d="M687.766 124.936C687.766 126.049 688.668 126.951 689.78 126.951H717.985C719.098 126.951 720 126.049 720 124.936V3.06364C720 1.95103 719.098 1.04907 717.985 1.04907C701.295 1.04907 687.766 14.5788 687.766 31.2685C687.766 62.491 687.766 93.7136 687.766 124.936Z" fill="#04092D"></path>
</svg>