<svg width="720" height="128" viewBox="0 0 720 128" fill="none" xmlns="http://www.w3.org/2000/svg">
<path fill-rule="evenodd" clip-rule="evenodd" d="M0 124.936C0 126.048 0.901953 126.95 2.01457 126.95H57.3795C70.8671 126.95 82.8469 124.406 93.267 119.256L93.2835 119.247C103.688 113.985 111.865 106.662 117.758 97.2805L117.764 97.2707C123.676 87.7395 126.598 76.6243 126.598 63.9996C126.598 51.2635 123.678 40.1423 117.758 30.7188C111.864 21.3355 103.684 14.0685 93.2752 8.92203C82.8532 3.65296 70.8703 1.04883 57.3795 1.04883H2.01457C0.901953 1.04883 0 1.95078 0 3.0634V124.936ZM89.2478 82.9955L89.2324 83.022C86.1833 88.3579 81.8338 92.4999 76.1311 95.4622C70.5527 98.3045 63.8599 99.7655 55.9867 99.7655H32.2339V28.2337H55.9867C63.8523 28.2337 70.5371 29.7498 76.1106 32.7004L76.1308 32.711L76.1523 32.7219C81.8435 35.5675 86.186 39.6461 89.2324 44.9772L89.2432 44.9959L89.2572 45.0195C92.3992 50.2201 94.0159 56.5183 94.0159 63.9996C94.0159 71.3574 92.4024 77.6653 89.2478 82.9955Z" fill="white"></path>
<path d="M151.257 124.936C151.257 126.048 152.159 126.95 153.272 126.95H181.476C182.589 126.95 183.491 126.048 183.491 124.936V3.0634C183.491 1.95078 182.589 1.04883 181.476 1.04883C164.785 1.04883 151.252 14.5765 151.25 31.268C151.248 62.4906 151.257 93.7132 151.257 124.936Z" fill="white"></path>
<path fill-rule="evenodd" clip-rule="evenodd" d="M212.373 124.936C212.373 126.048 213.275 126.95 214.388 126.95H269.753C283.24 126.95 295.22 124.406 305.64 119.256L305.657 119.247C316.061 113.985 324.238 106.662 330.131 97.2805L330.137 97.2707C336.049 87.7395 338.971 76.6243 338.971 63.9996C338.971 51.2635 336.051 40.1423 330.131 30.7188C324.237 21.3355 316.057 14.0685 305.648 8.92203C295.226 3.65296 283.243 1.04883 269.753 1.04883H214.388C213.275 1.04883 212.373 1.95078 212.373 3.0634V124.936ZM288.525 32.7219C294.217 35.5675 298.559 39.6461 301.605 44.9772L301.616 44.9952L301.63 45.0195C304.772 50.2201 306.389 56.5183 306.389 63.9996C306.389 71.3574 304.775 77.6653 301.621 82.9955L301.605 83.022C298.556 88.3579 294.207 92.4999 288.504 95.4622C282.926 98.3045 276.233 99.7655 268.36 99.7655H244.607V28.2337H268.36C276.225 28.2337 282.91 29.7498 288.484 32.7004L288.504 32.711L288.525 32.7219Z" fill="white"></path>
<path fill-rule="evenodd" clip-rule="evenodd" d="M401.667 123.242L401.676 123.245C410.029 126.422 419.062 128 428.756 128C438.337 128 447.205 126.422 455.337 123.239C463.55 120.071 470.68 115.656 476.703 109.987C482.837 104.206 487.618 97.4179 491.036 89.6386L491.04 89.6282C494.467 81.7099 496.171 73.1592 496.171 63.9998C496.171 54.7331 494.47 46.2317 491.033 38.5268C487.617 30.7528 482.841 23.9692 476.711 18.1913C470.688 12.4054 463.554 7.93057 455.336 4.75965C447.201 1.57681 438.276 0 428.585 0C419.002 0 410.079 1.57862 401.838 4.75785C393.617 7.92894 386.429 12.403 380.294 18.1845C374.16 23.9652 369.38 30.7528 365.962 38.5321L365.952 38.5562C362.641 46.3609 360.998 54.8504 360.998 63.9998C360.998 73.1492 362.641 81.6387 365.952 89.4434L365.962 89.4675C369.377 97.2381 374.093 104.021 380.108 109.801L380.123 109.815C386.258 115.597 393.446 120.071 401.667 123.242ZM442.535 97.6812L442.518 97.688C438.344 99.4005 433.709 100.272 428.585 100.272C423.461 100.272 418.762 99.4007 414.463 97.6812C410.161 95.9601 406.408 93.4939 403.189 90.2777C400.084 87.062 397.607 83.2471 395.764 78.8107C394.043 74.2814 393.172 69.3508 393.172 63.9998C393.172 58.5257 394.045 53.5999 395.761 49.1965C397.6 44.7655 400.131 40.952 403.348 37.7342C406.576 34.5055 410.28 32.036 414.471 30.3151C418.768 28.5978 423.465 27.7277 428.585 27.7277C433.708 27.7277 438.408 28.5989 442.706 30.3184C447.008 32.0393 450.697 34.5027 453.797 37.7093L453.821 37.7342C457.034 40.9478 459.504 44.7542 461.23 49.1764C461.235 49.1898 461.24 49.2032 461.246 49.2165C463.069 53.6141 463.998 58.5323 463.998 63.9998C463.998 69.4673 463.069 74.3855 461.246 78.7831C461.24 78.7964 461.235 78.8098 461.23 78.8232C459.504 83.2454 457.034 87.0519 453.821 90.2654C450.599 93.4876 446.843 95.9578 442.535 97.6812Z" fill="white"></path>
<path d="M518.188 124.936C518.188 126.048 519.089 126.95 520.202 126.95H546.666C547.778 126.95 548.68 126.048 548.68 124.936V60.5531L580.636 113.099C581.001 113.7 581.654 114.067 582.357 114.067H595.067C595.777 114.067 596.434 113.693 596.798 113.083L628.95 59.0825L629.091 124.94C629.094 126.051 629.995 126.95 631.106 126.95H657.57C658.105 126.95 658.618 126.737 658.996 126.358C659.374 125.979 659.586 125.465 659.584 124.93V3.05764C659.581 1.94728 658.68 1.04883 657.57 1.04883H634.066C633.354 1.04883 632.696 1.42392 632.333 2.03569L589.167 74.8136L545.257 2.0228C544.892 1.41834 544.238 1.04883 543.532 1.04883H520.202C519.089 1.04883 518.188 1.95078 518.188 3.0634V124.936Z" fill="white"></path>
<path d="M687.766 124.936C687.766 126.048 688.668 126.95 689.78 126.95H717.985C719.098 126.95 720 126.048 720 124.936V3.0634C720 1.95078 719.098 1.04883 717.985 1.04883C701.295 1.04883 687.766 14.5785 687.766 31.2683C687.766 62.4908 687.766 93.7133 687.766 124.936Z" fill="white"></path>
</svg>