<svg width="41" height="23" viewBox="0 0 41 23" fill="none" xmlns="http://www.w3.org/2000/svg">
<path d="M16.6387 22.1406L16.6318 13.9971C16.6341 13.997 16.6364 13.9971 16.6387 13.9971V22.1406ZM16.5557 9.55469C16.8881 9.55474 17.1922 9.6079 17.4668 9.71191C17.7454 9.81602 17.9831 9.97428 18.1787 10.1865L18.1807 10.1885L18.1758 10.1934L18.1777 10.1953L18.1826 10.1914L18.2793 10.2959L18.1777 10.1963L18.1758 10.1934L17.8867 10.4834L17.8818 10.4883C17.7001 10.3066 17.4989 10.177 17.2803 10.0986C17.1161 10.0398 16.9426 10.003 16.7598 9.98828L16.5742 9.98145C16.3055 9.98145 16.0572 10.0264 15.8301 10.1172C15.6071 10.2039 15.4105 10.3309 15.2412 10.4961C15.0763 10.657 14.9465 10.8468 14.8516 11.0654C14.7608 11.2799 14.7149 11.5172 14.7148 11.7773C14.7149 12.0335 14.7608 12.2714 14.8516 12.4902L14.9297 12.6494C15.0138 12.8032 15.1168 12.9428 15.2402 13.0664H15.2412C15.4104 13.2273 15.6072 13.3535 15.8301 13.4443C16.0571 13.5309 16.3031 13.5742 16.5674 13.5742C16.589 13.5742 16.6105 13.5719 16.6318 13.5713V13.5791C16.6341 13.579 16.6364 13.5792 16.6387 13.5791V13.5713C16.8603 13.5647 17.0707 13.5301 17.2686 13.4629C17.4207 13.4121 17.5632 13.3354 17.6982 13.2363V12.2354H17.0889C16.8615 12.2354 16.6741 12.069 16.6387 11.8516V11.7705H17.7061V11.7695H18.1484V11.7773H18.1562V13.4482L18.1533 13.4443L17.9912 13.5732C17.8219 13.6943 17.6319 13.7905 17.4229 13.8623H17.4219C17.1709 13.9447 16.9098 13.9888 16.6387 13.9971V13.9893C16.6364 13.9893 16.6341 13.9892 16.6318 13.9893V13.9971L16.5488 14.001C16.2163 14.001 15.9079 13.946 15.625 13.8379C15.3466 13.7257 15.1034 13.5696 14.8955 13.3701C14.7426 13.2203 14.6137 13.0499 14.5098 12.8604L14.4141 12.6641C14.3298 12.4611 14.2769 12.2437 14.2559 12.0127L14.2451 11.7773C14.2452 11.4574 14.3018 11.162 14.4141 10.8916L14.5098 10.6953C14.6144 10.5056 14.7454 10.3354 14.9014 10.1855C15.1094 9.98597 15.3533 9.83175 15.6318 9.72363C15.9148 9.61136 16.2231 9.55469 16.5557 9.55469ZM27.3496 9.56543C27.5868 9.58651 27.8105 9.63939 28.0195 9.72363C28.2979 9.83174 28.5394 9.98606 28.7432 10.1855C28.9511 10.3853 29.1113 10.6213 29.2236 10.8916L29.3008 11.0986C29.3665 11.3108 29.3994 11.5372 29.3994 11.7773L29.3877 12.0127C29.373 12.1666 29.3445 12.3146 29.3008 12.4561L29.2236 12.6641C29.1113 12.9344 28.9512 13.1704 28.7432 13.3701C28.5394 13.5696 28.2979 13.7256 28.0195 13.8379C27.8105 13.919 27.5868 13.9691 27.3496 13.9893L27.1074 14C26.7792 14 26.4732 13.946 26.1904 13.8379C25.912 13.7256 25.6679 13.5696 25.46 13.3701V13.3691C25.3072 13.2164 25.1788 13.0462 25.0752 12.8584L24.9795 12.6641C24.8952 12.4611 24.8423 12.2437 24.8213 12.0127L24.8105 11.7773C24.8106 11.4572 24.8671 11.1639 24.9795 10.8975C25.096 10.6271 25.2561 10.3912 25.46 10.1914C25.668 9.98769 25.9119 9.83176 26.1904 9.72363C26.4692 9.61134 26.775 9.55473 27.1074 9.55469L27.3496 9.56543ZM31.3213 9.58105H31.3291V12.0576C31.3291 12.5709 31.4454 12.9487 31.6758 13.1914C31.9062 13.4337 32.2313 13.5556 32.6523 13.5557C33.0777 13.5556 33.4053 13.4339 33.6357 13.1914C33.8661 12.9487 33.9824 12.5709 33.9824 12.0576V9.58105H33.9902V9.57324H34.4385V9.58105H34.4463V12.0762C34.4463 12.7033 34.2858 13.1787 33.9648 13.5C33.6479 13.821 33.2095 13.9814 32.6523 13.9814C32.0953 13.9814 31.656 13.8209 31.335 13.5C31.0137 13.1787 30.8526 12.7037 30.8525 12.0762V9.58105H30.8604V9.57324H31.3213V9.58105ZM20.0771 13.9639C20.0785 13.9636 20.0899 13.9603 20.1084 13.9561H20.123L20.0771 13.9639ZM21.7061 9.59277C22.0759 9.5928 22.3945 9.65364 22.6611 9.77441C22.9275 9.89104 23.1326 10.062 23.2744 10.2871H23.2734C23.4194 10.5083 23.4932 10.7776 23.4932 11.0938L23.4795 11.3174C23.4521 11.5329 23.3837 11.7257 23.2744 11.8945C23.1325 12.1154 22.9275 12.2865 22.6611 12.4072C22.6099 12.4304 22.5558 12.4483 22.501 12.4668L23.5605 13.9512L23.5547 13.9434V13.9639H23.0391L23.0498 13.9561L23.0439 13.96L22.0557 12.5654C21.9449 12.5786 21.8283 12.5889 21.7061 12.5889H20.5439V13.5576C20.5437 13.7223 20.4266 13.824 20.3115 13.8838C20.2316 13.9253 20.1511 13.9463 20.1084 13.9561H20.0684V9.60059H20.0762V9.59277H21.7061ZM36.4814 13.958C36.4855 13.9571 36.4901 13.9562 36.4951 13.9551H36.5068L36.4814 13.958ZM38.0889 9.59277C38.4586 9.59278 38.7774 9.65272 39.0439 9.77344C39.3106 9.89013 39.5163 10.0618 39.6582 10.2871H39.6572C39.8031 10.5083 39.877 10.7776 39.877 11.0938C39.8769 11.4014 39.8039 11.6684 39.6582 11.8936C39.5163 12.1147 39.3106 12.2864 39.0439 12.4072C38.7774 12.5279 38.4586 12.5879 38.0889 12.5879H36.9277V13.5576C36.9275 13.7234 36.8084 13.8254 36.6924 13.8848C36.6345 13.9143 36.5765 13.9332 36.5332 13.9453C36.5189 13.9493 36.5058 13.9526 36.4951 13.9551H36.4512V9.60059H36.459V9.59277H38.0889ZM27.1074 9.98145C26.8472 9.98149 26.6057 10.0264 26.3828 10.1172C26.1599 10.2039 25.9649 10.3291 25.7998 10.4941C25.6388 10.6552 25.5111 10.8464 25.416 11.0654C25.3254 11.2799 25.2803 11.5172 25.2803 11.7773C25.2803 12.0335 25.3252 12.2715 25.416 12.4902L25.4932 12.6494C25.5767 12.8032 25.6793 12.9417 25.7998 13.0654C25.965 13.2264 26.1598 13.3535 26.3828 13.4443C26.6056 13.5309 26.8473 13.5742 27.1074 13.5742C27.3676 13.5742 27.6075 13.5309 27.8262 13.4443C28.0493 13.3534 28.2423 13.2274 28.4033 13.0664C28.5684 12.9013 28.6963 12.7107 28.7871 12.4961L28.8467 12.3281C28.8977 12.1563 28.9228 11.9725 28.9229 11.7773C28.9228 11.5823 28.8977 11.3998 28.8467 11.2305L28.7871 11.0654C28.6963 10.8467 28.5682 10.656 28.4033 10.4951L28.4023 10.4941C28.2415 10.3294 28.0489 10.2038 27.8262 10.1172C27.6075 10.0265 27.3677 9.98145 27.1074 9.98145ZM16.6387 11.8516V13.5713C16.6364 13.5714 16.6341 13.5712 16.6318 13.5713L16.6309 11.7783C16.6309 11.8033 16.6348 11.8277 16.6387 11.8516ZM20.5439 12.1689H21.6943L21.8525 12.165C22.2091 12.1445 22.4845 12.0524 22.6787 11.8906C22.9046 11.7016 23.0175 11.4358 23.0176 11.0938L23.0127 10.9678C22.9915 10.7227 22.9062 10.5218 22.7578 10.3652L22.6787 10.291C22.4846 10.1256 22.209 10.0317 21.8525 10.0107L21.6943 10.0068H20.5439V12.1689ZM36.9277 12.168H38.0771C38.5115 12.1679 38.8395 12.0756 39.0615 11.8906C39.2875 11.7016 39.4003 11.4359 39.4004 11.0938L39.3955 10.9678C39.3744 10.7223 39.2892 10.521 39.1406 10.3643L39.0615 10.29C38.8673 10.1246 38.592 10.0306 38.2354 10.0098L38.0771 10.0059H36.9277V12.168ZM18.1826 10.1914L18.1807 10.1885L18.4199 9.9502L18.1826 10.1914ZM23.8223 0C24.3607 2.08915e-05 24.8566 0.0878506 25.3086 0.264648C25.7653 0.440851 26.1623 0.689269 26.4971 1.01074C26.8377 1.33189 27.1031 1.70951 27.293 2.1416C27.484 2.56986 27.5791 3.04255 27.5791 3.55762C27.5791 4.06644 27.4842 4.54153 27.2939 4.98145L27.293 4.98242C27.1031 5.41465 26.8378 5.79206 26.4971 6.11328C26.1623 6.4284 25.7651 6.67446 25.3086 6.85059C24.8568 7.02726 24.3642 7.11421 23.832 7.11426C23.2932 7.11426 22.7904 7.02716 22.3262 6.85059L22.1572 6.78125C21.8251 6.63541 21.5256 6.44826 21.2588 6.2207L21.1279 6.10352C20.7936 5.78225 20.5316 5.40457 20.3418 4.97266L20.3408 4.97168C20.1568 4.53793 20.0655 4.06609 20.0654 3.55762C20.0654 3.04918 20.1569 2.57728 20.3408 2.14355L20.3418 2.1416C20.5317 1.70938 20.7969 1.33195 21.1377 1.01074C21.4786 0.689482 21.8782 0.440897 22.335 0.264648C22.7931 0.087937 23.2896 0 23.8223 0ZM3.18945 0.0585938C3.93926 0.0586104 4.60532 0.203239 5.18457 0.496094C5.76311 0.782147 6.21729 1.18648 6.54492 1.70801C6.87391 2.23177 7.03711 2.84976 7.03711 3.55762C7.03708 4.25906 6.87428 4.87662 6.5459 5.40625L6.54492 5.40723C6.21735 5.9286 5.76283 6.33548 5.18457 6.62793L5.18359 6.62891C4.60455 6.915 3.93889 7.05662 3.18945 7.05664H0.112305C0.0504621 7.05664 0 7.00618 0 6.94434V0.169922C0.00025023 0.108293 0.050617 0.0585938 0.112305 0.0585938H3.18945ZM10.0869 0.0585938C10.1486 0.0585938 10.199 0.108293 10.1992 0.169922V6.94434C10.1992 7.00618 10.1488 7.05664 10.0869 7.05664H8.51953C8.45769 7.05664 8.40723 7.00618 8.40723 6.94434C8.40723 5.20898 8.40709 3.47363 8.40723 1.73828C8.4073 0.810566 9.15922 0.0586702 10.0869 0.0585938ZM14.9941 0.0585938C15.7438 0.0586504 16.4101 0.20328 16.9893 0.496094C17.5677 0.782139 18.022 1.18655 18.3496 1.70801C18.6785 2.23174 18.8408 2.84983 18.8408 3.55762C18.8408 4.25919 18.6781 4.87656 18.3496 5.40625V5.40723C18.022 5.92865 17.5675 6.33545 16.9893 6.62793L16.9883 6.62891C16.4093 6.91504 15.7436 7.05659 14.9941 7.05664H11.916C11.8543 7.05646 11.8047 7.00607 11.8047 6.94434V0.169922C11.8049 0.108405 11.8545 0.0587738 11.916 0.0585938H14.9941ZM30.2109 0.0585938C30.25 0.0585938 30.2863 0.0789094 30.3066 0.112305L32.748 4.1582L35.1465 0.113281C35.1666 0.0793095 35.2037 0.0586337 35.2432 0.0585938H36.5498C36.6114 0.0586505 36.6619 0.108305 36.6621 0.169922V6.94434C36.6621 6.97401 36.6499 7.00242 36.6289 7.02344C36.6079 7.04447 36.5795 7.05661 36.5498 7.05664H35.0791C35.0174 7.05664 34.9669 7.00608 34.9668 6.94434L34.959 3.28418L33.1719 6.28516C33.1517 6.31907 33.1147 6.33984 33.0752 6.33984H32.3691C32.33 6.33984 32.2938 6.31953 32.2734 6.28613L30.4971 3.36621V6.94434C30.4971 7.00604 30.4474 7.05641 30.3857 7.05664H28.9141C28.8524 7.05647 28.8027 7.00607 28.8027 6.94434V0.169922C28.803 0.108402 28.8525 0.0587686 28.9141 0.0585938H30.2109ZM39.9082 0.0585938C39.9697 0.0588091 40.0193 0.108427 40.0195 0.169922V6.94434C40.0195 7.00605 39.9699 7.05643 39.9082 7.05664H38.3398C38.2781 7.0565 38.2285 7.00609 38.2285 6.94434V1.73828C38.2285 0.810616 38.9805 0.0585938 39.9082 0.0585938ZM23.8223 1.54102C23.5378 1.54102 23.2768 1.59016 23.0381 1.68555C22.8051 1.7812 22.5984 1.9182 22.4189 2.09766C22.2403 2.27637 22.1002 2.48837 21.998 2.73438C21.9027 2.97913 21.8535 3.25335 21.8535 3.55762C21.8535 3.85496 21.9024 4.12916 21.998 4.38086C22.1004 4.62714 22.2378 4.83899 22.4102 5.01758C22.5891 5.19634 22.798 5.33402 23.0371 5.42969C23.276 5.52526 23.5375 5.57324 23.8223 5.57324C24.107 5.57322 24.3647 5.52485 24.5967 5.42969H24.5977C24.837 5.33394 25.0456 5.19655 25.2246 5.01758C25.4032 4.83896 25.5408 4.62666 25.6367 4.38086L25.6377 4.37891C25.7389 4.13459 25.79 3.86133 25.79 3.55762C25.79 3.25372 25.739 2.97978 25.6377 2.73535L25.6367 2.7334C25.5408 2.48761 25.4032 2.27627 25.2246 2.09766L25.2236 2.0957C25.0515 1.91764 24.8463 1.78118 24.6074 1.68555C24.3686 1.58999 24.107 1.54104 23.8223 1.54102ZM1.79199 5.54492H3.1123C3.54961 5.54487 3.92153 5.46447 4.23145 5.30664C4.54842 5.14198 4.79048 4.91084 4.95996 4.61426L4.96094 4.61328C5.13621 4.31709 5.22556 3.96645 5.22559 3.55762C5.22559 3.14178 5.13558 2.79102 4.96094 2.50195L4.95996 2.50098V2.5C4.79063 2.20368 4.54876 1.9775 4.23242 1.81934L4.23047 1.81738C3.9208 1.65347 3.54927 1.56939 3.1123 1.56934H1.79199V5.54492ZM13.5957 5.54492H14.916C15.3536 5.54492 15.7261 5.4646 16.0361 5.30664C16.3531 5.14198 16.5952 4.91084 16.7646 4.61426V4.61328C16.94 4.31707 17.0302 3.9665 17.0303 3.55762C17.0303 3.14178 16.9403 2.79102 16.7656 2.50195L16.7646 2.50098V2.5C16.5953 2.20372 16.3534 1.9775 16.0371 1.81934L16.0352 1.81738C15.7254 1.65338 15.3532 1.56934 14.916 1.56934H13.5957V5.54492Z" fill="#04092D"></path>
</svg>