<svg width="69" height="14" viewBox="0 0 69 14" fill="none" xmlns="http://www.w3.org/2000/svg">
<path fill-rule="evenodd" clip-rule="evenodd" d="M55.8316 13.4412C55.8316 13.4607 55.8474 13.4765 55.8669 13.4765H56.8361C57.0722 13.4765 57.2819 13.4319 57.4643 13.3418L57.4646 13.3416C57.6467 13.2495 57.7899 13.1213 57.893 12.9571L57.8932 12.9569C57.9966 12.7901 58.0478 12.5955 58.0478 12.3745C58.0478 12.1516 57.9967 11.9569 57.893 11.7919C57.7899 11.6276 57.6467 11.5004 57.4645 11.4103C57.282 11.3181 57.0723 11.2725 56.8361 11.2725H55.8669C55.8474 11.2725 55.8316 11.2883 55.8316 11.3078V13.4412ZM57.394 12.707L57.3937 12.7075C57.3403 12.8009 57.2642 12.8734 57.1643 12.9253C57.0667 12.975 56.9495 13.0006 56.8117 13.0006H56.3959V11.7484H56.8117C56.9494 11.7484 57.0664 11.7749 57.164 11.8266L57.1643 11.8268L57.1647 11.827C57.2643 11.8768 57.3404 11.9482 57.3937 12.0415L57.3939 12.0418L57.3941 12.0422C57.4491 12.1333 57.4774 12.2435 57.4774 12.3745C57.4774 12.5033 57.4492 12.6137 57.394 12.707Z" fill="white"></path>
<path d="M58.5002 13.4412C58.5002 13.4607 58.516 13.4765 58.5355 13.4765H59.0292C59.0487 13.4765 59.0645 13.4607 59.0645 13.4412V11.3078C59.0645 11.2883 59.0487 11.2725 59.0292 11.2725C58.737 11.2725 58.5001 11.5093 58.5001 11.8015C58.5001 12.3481 58.5002 12.8947 58.5002 13.4412Z" fill="white"></path>
<path fill-rule="evenodd" clip-rule="evenodd" d="M59.6406 13.4412C59.6406 13.4607 59.6564 13.4765 59.6759 13.4765H60.6451C60.8812 13.4765 61.0909 13.4319 61.2733 13.3418L61.2736 13.3416C61.4558 13.2495 61.5989 13.1213 61.7021 12.9571L61.7022 12.9569C61.8056 12.7901 61.8568 12.5955 61.8568 12.3745C61.8568 12.1516 61.8057 11.9569 61.7021 11.7919C61.5989 11.6276 61.4557 11.5004 61.2735 11.4103C61.091 11.3181 60.8813 11.2725 60.6451 11.2725H59.6759C59.6564 11.2725 59.6406 11.2883 59.6406 11.3078V13.4412ZM60.9737 11.827C61.0734 11.8768 61.1494 11.9482 61.2027 12.0415L61.2029 12.0418L61.2031 12.0422C61.2581 12.1333 61.2864 12.2435 61.2864 12.3745C61.2864 12.5033 61.2582 12.6137 61.203 12.707L61.2027 12.7075C61.1493 12.8009 61.0732 12.8734 60.9734 12.9253C60.8757 12.975 60.7585 13.0006 60.6207 13.0006H60.2049V11.7484H60.6207C60.7584 11.7484 60.8754 11.7749 60.973 11.8266L60.9733 11.8268L60.9737 11.827Z" fill="white"></path>
<path fill-rule="evenodd" clip-rule="evenodd" d="M63.0139 13.4117L63.0141 13.4117C63.1603 13.4673 63.3184 13.4949 63.4881 13.4949C63.6559 13.4949 63.8111 13.4673 63.9535 13.4116C64.0972 13.3561 64.222 13.2789 64.3275 13.1796C64.4349 13.0784 64.5185 12.9596 64.5784 12.8234L64.5784 12.8232C64.6384 12.6846 64.6683 12.5349 64.6683 12.3746C64.6683 12.2124 64.6385 12.0636 64.5783 11.9287C64.5185 11.7926 64.4349 11.6738 64.3276 11.5727C64.2222 11.4714 64.0973 11.3931 63.9534 11.3376C63.811 11.2819 63.6548 11.2543 63.4851 11.2543C63.3174 11.2543 63.1612 11.2819 63.0169 11.3375C62.873 11.3931 62.7472 11.4714 62.6398 11.5726C62.5324 11.6738 62.4487 11.7926 62.3889 11.9288L62.3887 11.9292C62.3308 12.0658 62.302 12.2144 62.302 12.3746C62.302 12.5348 62.3308 12.6834 62.3887 12.82L62.3889 12.8204C62.4487 12.9565 62.5312 13.0752 62.6365 13.1764L62.6368 13.1766C62.7442 13.2778 62.87 13.3561 63.0139 13.4117ZM63.7293 12.9642L63.729 12.9643C63.656 12.9943 63.5748 13.0096 63.4851 13.0096C63.3954 13.0096 63.3132 12.9943 63.2379 12.9642C63.1626 12.9341 63.0969 12.8909 63.0406 12.8346C62.9862 12.7783 62.9429 12.7115 62.9106 12.6339C62.8805 12.5546 62.8652 12.4683 62.8652 12.3746C62.8652 12.2788 62.8805 12.1925 62.9105 12.1155C62.9427 12.0379 62.987 11.9711 63.0434 11.9148C63.0999 11.8583 63.1647 11.8151 63.2381 11.7849C63.3133 11.7549 63.3955 11.7396 63.4851 11.7396C63.5748 11.7396 63.6571 11.7549 63.7323 11.785C63.8076 11.8151 63.8722 11.8582 63.9265 11.9144L63.9269 11.9148C63.9832 11.9711 64.0264 12.0377 64.0566 12.1151C64.0567 12.1153 64.0568 12.1156 64.0569 12.1158C64.0888 12.1928 64.1051 12.2789 64.1051 12.3746C64.1051 12.4703 64.0888 12.5564 64.0569 12.6334C64.0568 12.6336 64.0567 12.6339 64.0566 12.6341C64.0264 12.7115 63.9832 12.7781 63.9269 12.8344C63.8705 12.8908 63.8048 12.934 63.7293 12.9642Z" fill="white"></path>
<path d="M65.1012 13.4412C65.1012 13.4607 65.117 13.4765 65.1365 13.4765H65.5997C65.6192 13.4765 65.635 13.4607 65.635 13.4412V12.3142L66.1944 13.234C66.2008 13.2445 66.2122 13.251 66.2245 13.251H66.447C66.4594 13.251 66.4709 13.2444 66.4773 13.2337L67.0402 12.2884L67.0426 13.4413C67.0427 13.4607 67.0584 13.4765 67.0779 13.4765H67.5412C67.5505 13.4765 67.5595 13.4728 67.5661 13.4661C67.5727 13.4595 67.5764 13.4505 67.5764 13.4411V11.3077C67.5764 11.2882 67.5606 11.2725 67.5412 11.2725H67.1297C67.1173 11.2725 67.1057 11.2791 67.0994 11.2898L66.3437 12.5638L65.5751 11.2896C65.5687 11.279 65.5572 11.2725 65.5449 11.2725H65.1365C65.117 11.2725 65.1012 11.2883 65.1012 11.3078V13.4412Z" fill="white"></path>
<path d="M68.149 13.4412C68.149 13.4607 68.1648 13.4764 68.1843 13.4764H68.678C68.6975 13.4764 68.7133 13.4607 68.7133 13.4412V11.3077C68.7133 11.2883 68.6975 11.2725 68.678 11.2725C68.3858 11.2725 68.149 11.5093 68.149 11.8015C68.149 12.3481 68.149 12.8946 68.149 13.4412Z" fill="white"></path>
<path d="M53.6972 14.0002C53.6326 14.0002 53.5697 13.9891 53.5084 13.967C53.4472 13.9466 53.3945 13.916 53.3503 13.8752L53.4549 13.6915C53.4889 13.7238 53.5263 13.7485 53.5671 13.7655C53.6079 13.7825 53.6513 13.791 53.6972 13.791C53.7568 13.791 53.8061 13.7757 53.8452 13.7451C53.8843 13.7145 53.9209 13.66 53.9549 13.5818L54.0391 13.3955L54.0646 13.3649L54.5953 12.1378H54.8351L54.1794 13.6252C54.1403 13.7204 54.0961 13.7952 54.0467 13.8497C53.9991 13.9041 53.9464 13.9424 53.8886 13.9645C53.8307 13.9883 53.767 14.0002 53.6972 14.0002ZM54.0187 13.5333L53.4013 12.1378H53.6564L54.182 13.342L54.0187 13.5333Z" fill="white"></path>
<path d="M52.6535 13.5053C52.5378 13.5053 52.4332 13.4798 52.3397 13.4287C52.2478 13.376 52.1747 13.2986 52.1203 13.1966C52.0675 13.0945 52.0412 12.967 52.0412 12.8139C52.0412 12.6608 52.0684 12.5332 52.1228 12.4312C52.179 12.3291 52.2529 12.2526 52.3448 12.2016C52.4383 12.1506 52.5412 12.125 52.6535 12.125C52.7862 12.125 52.9035 12.154 53.0056 12.2118C53.1076 12.2696 53.1884 12.3504 53.2479 12.4542C53.3075 12.5562 53.3372 12.6761 53.3372 12.8139C53.3372 12.9516 53.3075 13.0724 53.2479 13.1762C53.1884 13.2799 53.1076 13.3607 53.0056 13.4185C52.9035 13.4764 52.7862 13.5053 52.6535 13.5053ZM51.9366 13.49V11.5969H52.1815V12.4975L52.156 12.8113L52.1713 13.1251V13.49H51.9366ZM52.6331 13.291C52.7198 13.291 52.7972 13.2714 52.8652 13.2323C52.935 13.1932 52.9894 13.1379 53.0285 13.0665C53.0693 12.9933 53.0897 12.9091 53.0897 12.8139C53.0897 12.7169 53.0693 12.6336 53.0285 12.5639C52.9894 12.4924 52.935 12.4371 52.8652 12.398C52.7972 12.3589 52.7198 12.3393 52.6331 12.3393C52.548 12.3393 52.4706 12.3589 52.4009 12.398C52.3329 12.4371 52.2785 12.4924 52.2376 12.5639C52.1985 12.6336 52.179 12.7169 52.179 12.8139C52.179 12.9091 52.1985 12.9933 52.2376 13.0665C52.2785 13.1379 52.3329 13.1932 52.4009 13.2323C52.4706 13.2714 52.548 13.291 52.6331 13.291Z" fill="white"></path>
<g clip-path="url(#clip0_721_4244)">
<path d="M13.1808 6.40514H14.6346C14.6346 7.04991 15.1668 7.36013 15.7568 7.36013C16.2982 7.36013 16.8304 7.07424 16.8304 6.5785C16.8304 6.06147 16.2222 5.91852 15.5014 5.75125C14.4977 5.5049 13.2781 5.21293 13.2781 3.7774C13.2781 2.50003 14.221 1.77923 15.696 1.77923C17.2289 1.77923 18.0987 2.59736 18.0987 3.92339H16.6662C16.6662 3.34857 16.1918 3.08093 15.6534 3.08093C15.1851 3.08093 14.7137 3.27862 14.7137 3.71658C14.7137 4.18495 15.2915 4.32789 15.9971 4.49517C17.0129 4.75064 18.2873 5.06998 18.2873 6.56025C18.2873 7.99882 17.1407 8.69833 15.7629 8.69833C14.2331 8.69529 13.1808 7.83763 13.1808 6.40514Z" fill="white"></path>
<path d="M18.7559 5.99452C18.7559 4.4343 19.942 3.27858 21.5327 3.27858C23.1172 3.27858 24.3094 4.43734 24.3094 5.99452C24.3094 7.54561 23.1142 8.71046 21.5327 8.71046C19.942 8.70742 18.7559 7.54257 18.7559 5.99452ZM22.9013 5.99452C22.9013 5.16118 22.3325 4.58637 21.5327 4.58637C20.7328 4.58637 20.1641 5.16118 20.1641 5.99452C20.1641 6.82785 20.7328 7.40267 21.5327 7.40267C22.3325 7.40267 22.9013 6.82481 22.9013 5.99452Z" fill="white"></path>
<path d="M24.875 6.39289V3.42452H26.2649V6.23474C26.2649 6.96467 26.6511 7.40263 27.2929 7.40263C27.9376 7.40263 28.3148 6.95555 28.3148 6.23474V3.42452H29.7047V6.39289C29.7047 7.77976 28.7466 8.70737 27.2929 8.70737C25.8421 8.70737 24.875 7.77976 24.875 6.39289Z" fill="white"></path>
<path d="M33.5795 3.39412V4.70495H32.9773C32.1957 4.70495 31.8855 5.05166 31.8855 5.89108V8.59789H30.4956V3.42453H31.3867L31.633 4.0541C31.998 3.60093 32.4633 3.39716 33.1233 3.39716H33.5795V3.39412Z" fill="white"></path>
<path d="M36.4659 8.70734C34.9209 8.70734 33.7378 7.51816 33.7378 5.97619C33.7378 4.43726 34.9118 3.27546 36.4751 3.27546C37.8072 3.27546 38.8382 4.11792 39.0876 5.38312H37.7068C37.4818 4.87826 37.0195 4.5802 36.4659 4.5802C35.7117 4.5802 35.146 5.18544 35.146 5.98227C35.146 6.77911 35.7208 7.39955 36.4659 7.39955C37.0286 7.39955 37.4726 7.08629 37.7068 6.53884H39.1059C38.8625 7.83142 37.8102 8.70734 36.4659 8.70734Z" fill="white"></path>
<path d="M44.9756 6.38381H41.0857C41.2073 7.08637 41.6666 7.47262 42.3417 7.47262C42.8253 7.47262 43.2207 7.24452 43.4305 6.87651H44.8904C44.5163 7.99574 43.534 8.71046 42.3387 8.71046C40.8211 8.71046 39.6745 7.53649 39.6745 5.99452C39.6745 4.44646 40.815 3.27858 42.3387 3.27858C43.9172 3.27858 44.9999 4.49513 44.9999 5.97627C45.0029 6.11009 44.9938 6.24695 44.9756 6.38381ZM41.1222 5.43491H43.613C43.4153 4.80535 42.9652 4.46471 42.3417 4.46471C41.7213 4.46471 41.2833 4.82663 41.1222 5.43491Z" fill="white"></path>
<path d="M48.3422 3.27858C49.8902 3.27858 51.0338 4.43734 51.0338 5.99452C51.0338 7.5517 49.8902 8.71654 48.3422 8.71654C47.8099 8.71654 47.3264 8.55839 46.9279 8.28467V10.2159H45.538V3.42457H46.4565L46.6938 3.89294C47.1317 3.50364 47.7004 3.27858 48.3422 3.27858ZM49.6287 5.99452C49.6287 5.18856 49.0356 4.58637 48.2296 4.58637C47.4237 4.58637 46.8276 5.18856 46.8276 5.99452C46.8276 6.80048 47.4206 7.40267 48.2296 7.40267C49.0356 7.40267 49.6287 6.80048 49.6287 5.99452Z" fill="white"></path>
<path d="M51.5508 5.99452C51.5508 4.4343 52.737 3.27858 54.3276 3.27858C55.9121 3.27858 57.1043 4.43734 57.1043 5.99452C57.1043 7.54561 55.9091 8.71046 54.3276 8.71046C52.74 8.70742 51.5508 7.54257 51.5508 5.99452ZM55.6992 5.99452C55.6992 5.16118 55.1305 4.58637 54.3306 4.58637C53.5307 4.58637 52.962 5.16118 52.962 5.99452C52.962 6.82785 53.5307 7.40267 54.3306 7.40267C55.1305 7.40267 55.6992 6.82481 55.6992 5.99452Z" fill="white"></path>
<path d="M57.6944 3.42453H59.0843V8.60093H57.6944V3.42453ZM57.6974 1.48414H59.0812V2.65202H57.6974V1.48414Z" fill="white"></path>
<path d="M64.7778 5.44704V8.59789H63.3879V5.6721C63.3879 4.89655 63.0929 4.51943 62.4907 4.51943C61.773 4.51943 61.338 5.03342 61.338 5.86067V8.59789H59.9481V3.42453H60.9031L61.1738 4.06018C61.5631 3.59789 62.1775 3.30288 62.877 3.30288C64.0449 3.30288 64.7778 4.14838 64.7778 5.44704Z" fill="white"></path>
<path d="M67.3689 1.94335V3.4245H68.6828V4.54068H67.3933V6.57839C67.3933 7.07413 67.6792 7.36002 68.184 7.36002H68.7132V8.59786H67.8312C66.6998 8.59786 66.0064 7.90443 66.0064 6.76391V4.54068H64.9389L65.0758 4.38861" fill="white"></path>
<path d="M4.93466 5.08621L3.28949 3.44104L1.64432 5.08621L3.28949 6.73138L4.93466 5.08621Z" fill="white"></path>
<path d="M3.2907 6.73356L1.64532 5.08818L3.2907 3.4428" fill="white"></path>
<path d="M3.28964 3.44069L1.64447 1.79552L-0.000698634 3.44069L1.64447 5.08586L3.28964 3.44069Z" fill="white"></path>
<path d="M1.64511 5.0882L-0.000263214 3.44282L1.64511 1.79744" fill="white"></path>
<path d="M-0.000263214 0.15213L1.64511 1.79751L-0.000263214 3.44289" fill="white"></path>
<path d="M3.28936 6.73122L1.64419 5.08605L-0.0009828 6.73122L1.64419 8.37639L3.28936 6.73122Z" fill="white"></path>
<path d="M1.64511 8.3759L-0.000263214 6.73356L1.64511 5.08818" fill="white"></path>
<path d="M-0.000263214 6.73348L1.64511 8.37582L-0.000263214 10.0212" fill="white"></path>
<path d="M7.28621 6.73265L8.93138 5.08748L7.28621 3.44231L5.64104 5.08748L7.28621 6.73265Z" fill="white"></path>
<path d="M7.28693 6.73356L8.92926 5.08818L7.28693 3.4428" fill="white"></path>
<path d="M8.92926 5.0882L10.5746 3.44282L8.92926 1.79744L7.28693 3.44282L8.92926 5.0882Z" fill="white"></path>
<path d="M8.92911 5.0882L10.5745 3.44282L8.92911 1.79744" fill="white"></path>
<path d="M10.5745 0.15213L8.92911 1.79751L10.5745 3.44289" fill="white"></path>
<path d="M8.93095 8.37765L10.5761 6.73248L8.93095 5.08731L7.28578 6.73248L8.93095 8.37765Z" fill="white"></path>
<path d="M8.92911 8.3759L10.5745 6.73356L8.92911 5.08818" fill="white"></path>
<path d="M10.5745 6.73348L8.92911 8.37582L10.5745 10.0212" fill="white"></path>
</g>
<defs>
<clipPath id="clip0_721_4244">
<rect width="68.7348" height="10.3406" fill="white"></rect>
</clipPath>
</defs>
</svg>