<svg xmlns="http://www.w3.org/2000/svg" width="36" height="18" viewBox="0 0 36 18" fill="none">
  <path d="M 39.182 3.182 C 40.939 1.425 40.939 -1.425 39.182 -3.182 C 37.425 -4.939 34.575 -4.939 32.818 -3.182 L 36 0 L 39.182 3.182 Z M 18 18 L 14.818 21.182 C 15.662 22.026 16.807 22.5 18 22.5 C 19.193 22.5 20.338 22.026 21.182 21.182 L 18 18 Z M 3.182 -3.182 C 1.425 -4.939 -1.425 -4.939 -3.182 -3.182 C -4.939 -1.425 -4.939 1.425 -3.182 3.182 L 0 0 L 3.182 -3.182 Z M 36 0 L 32.818 -3.182 L 14.818 14.818 L 18 18 L 21.182 21.182 L 39.182 3.182 L 36 0 Z M 18 18 L 21.182 14.818 L 3.182 -3.182 L 0 0 L -3.182 3.182 L 14.818 21.182 L 18 18 Z" fill="currentColor" fill-rule="nonzero"></path>
</svg>