<svg xmlns="http://www.w3.org/2000/svg" width="88.844" height="88.844" viewBox="0 0 88.844 88.844" fill="none">
  <path d="M 88.844 44.422 L 92.844 44.422 C 92.844 43.361 92.423 42.344 91.673 41.594 C 90.923 40.844 89.905 40.422 88.844 40.422 L 88.844 44.422 Z M 66.633 22.211 L 70.633 22.211 C 70.633 20.002 68.842 18.211 66.633 18.211 L 66.633 22.211 Z M 44.422 0 L 48.422 0 C 48.422 -2.209 46.631 -4 44.422 -4 L 44.422 0 Z M 88.844 44.422 L 88.844 40.422 C 84.014 40.422 79.382 38.503 75.967 35.088 L 73.139 37.917 L 70.31 40.745 C 75.226 45.661 81.893 48.422 88.844 48.422 L 88.844 44.422 Z M 73.139 37.917 L 75.967 35.088 C 72.552 31.673 70.633 27.041 70.633 22.211 L 66.633 22.211 L 62.633 22.211 C 62.633 29.163 65.395 35.83 70.31 40.745 L 73.139 37.917 Z M 66.633 22.211 L 66.633 18.211 C 61.803 18.211 57.171 16.292 53.756 12.877 L 50.928 15.706 L 48.099 18.534 C 53.015 23.45 59.682 26.211 66.633 26.211 L 66.633 22.211 Z M 50.928 15.706 L 53.756 12.877 C 50.341 9.462 48.422 4.83 48.422 0 L 44.422 0 L 40.422 0 C 40.422 6.952 43.184 13.618 48.099 18.534 L 50.928 15.706 Z M 44.422 0 L 44.422 -4 C 34.845 -4 25.483 -1.16 17.52 4.161 L 19.743 7.486 L 21.965 10.812 C 28.612 6.371 36.427 4 44.422 4 L 44.422 0 Z M 19.743 7.486 L 17.52 4.161 C 9.557 9.481 3.351 17.044 -0.314 25.892 L 3.381 27.423 L 7.077 28.953 C 10.136 21.567 15.317 15.254 21.965 10.812 L 19.743 7.486 Z M 3.381 27.423 L -0.314 25.892 C -3.979 34.74 -4.938 44.476 -3.07 53.869 L 0.854 53.088 L 4.777 52.308 C 3.217 44.467 4.018 36.339 7.077 28.953 L 3.381 27.423 Z M 0.854 53.088 L -3.07 53.869 C -1.201 63.262 3.411 71.89 10.183 78.662 L 13.011 75.833 L 15.839 73.005 C 10.186 67.352 6.336 60.149 4.777 52.308 L 0.854 53.088 Z M 13.011 75.833 L 10.183 78.662 C 16.954 85.434 25.582 90.045 34.975 91.914 L 35.756 87.991 L 36.536 84.068 C 28.695 82.508 21.493 78.658 15.839 73.005 L 13.011 75.833 Z M 35.756 87.991 L 34.975 91.914 C 44.368 93.782 54.104 92.823 62.952 89.158 L 61.422 85.463 L 59.891 81.767 C 52.505 84.827 44.377 85.627 36.536 84.068 L 35.756 87.991 Z M 61.422 85.463 L 62.952 89.158 C 71.8 85.493 79.363 79.287 84.684 71.324 L 81.358 69.102 L 78.032 66.879 C 73.59 73.527 67.277 78.708 59.891 81.767 L 61.422 85.463 Z M 81.358 69.102 L 84.684 71.324 C 90.004 63.361 92.844 53.999 92.844 44.422 L 88.844 44.422 L 84.844 44.422 C 84.844 52.417 82.474 60.232 78.032 66.879 L 81.358 69.102 Z" fill="currentColor" fill-rule="nonzero"></path>
</svg>