<svg xmlns="http://www.w3.org/2000/svg" width="55.048" height="55.048" viewBox="0 0 55.048 55.048" fill="none">
  <path d="M 55.048 27.524 L 51.548 27.524 C 51.548 40.792 40.792 51.548 27.524 51.548 L 27.524 55.048 L 27.524 58.548 C 44.658 58.548 58.548 44.658 58.548 27.524 L 55.048 27.524 Z M 27.524 55.048 L 27.524 51.548 C 14.256 51.548 3.5 40.792 3.5 27.524 L 0 27.524 L -3.5 27.524 C -3.5 44.658 10.39 58.548 27.524 58.548 L 27.524 55.048 Z M 0 27.524 L 3.5 27.524 C 3.5 14.256 14.256 3.5 27.524 3.5 L 27.524 0 L 27.524 -3.5 C 10.39 -3.5 -3.5 10.39 -3.5 27.524 L 0 27.524 Z M 27.524 0 L 27.524 3.5 C 40.792 3.5 51.548 14.256 51.548 27.524 L 55.048 27.524 L 58.548 27.524 C 58.548 10.39 44.658 -3.5 27.524 -3.5 L 27.524 0 Z" fill="currentColor" fill-rule="nonzero"></path>
</svg>