<svg xmlns="http://www.w3.org/2000/svg" width="75.025" height="84.174" viewBox="0 0 75.025 84.174" fill="none">
  <path d="M 38.873 83.92 L 40.294 87.659 L 40.294 87.659 L 38.873 83.92 Z M 36.152 83.92 L 34.732 87.659 L 34.732 87.659 L 36.152 83.92 Z M 4.689 0 L 4.689 4 L 70.336 4 L 70.336 0 L 70.336 -4 L 4.689 -4 L 4.689 0 Z M 75.025 4.689 L 71.025 4.689 L 71.025 33.597 L 75.025 33.597 L 79.025 33.597 L 79.025 4.689 L 75.025 4.689 Z M 0 33.597 L 4 33.597 L 4 4.689 L 0 4.689 L -4 4.689 L -4 33.597 L 0 33.597 Z M 75.025 33.597 L 71.025 33.597 C 71.025 65.458 43.993 77.697 37.453 80.18 L 38.873 83.92 L 40.294 87.659 C 47.218 85.029 79.025 70.96 79.025 33.597 L 75.025 33.597 Z M 0 33.597 L -4 33.597 C -4 70.96 27.808 85.029 34.732 87.659 L 36.152 83.92 L 37.572 80.18 C 31.032 77.697 4 65.458 4 33.597 L 0 33.597 Z M 38.873 83.92 L 37.453 80.18 C 37.448 80.182 37.452 80.18 37.465 80.178 C 37.477 80.176 37.494 80.174 37.513 80.174 C 37.532 80.174 37.548 80.176 37.561 80.178 C 37.573 80.18 37.577 80.182 37.572 80.18 L 36.152 83.92 L 34.732 87.659 C 36.539 88.345 38.487 88.345 40.294 87.659 L 38.873 83.92 Z M 70.336 0 L 70.336 4 C 70.717 4 71.025 4.309 71.025 4.689 L 75.025 4.689 L 79.025 4.689 C 79.025 -0.11 75.135 -4 70.336 -4 L 70.336 0 Z M 4.689 0 L 4.689 -4 C -0.11 -4 -4 -0.11 -4 4.689 L 0 4.689 L 4 4.689 C 4 4.309 4.309 4 4.689 4 L 4.689 0 Z" fill="currentColor" fill-rule="nonzero"></path>
</svg>