<svg xmlns="http://www.w3.org/2000/svg" width="37.513" height="28.135" viewBox="0 0 37.513 28.135" fill="none">
  <path d="M 40.502 2.657 C 41.97 1.006 41.821 -1.522 40.17 -2.99 C 38.519 -4.457 35.991 -4.309 34.523 -2.657 L 37.513 0 L 40.502 2.657 Z M 12.504 28.135 L 9.515 30.792 C 10.274 31.646 11.362 32.135 12.504 32.135 C 13.647 32.135 14.735 31.646 15.494 30.792 L 12.504 28.135 Z M 2.99 11.41 C 1.522 9.759 -1.006 9.61 -2.657 11.078 C -4.309 12.545 -4.457 15.074 -2.99 16.725 L 0 14.067 L 2.99 11.41 Z M 37.513 0 L 34.523 -2.657 L 9.515 25.477 L 12.504 28.135 L 15.494 30.792 L 40.502 2.657 L 37.513 0 Z M 12.504 28.135 L 15.494 25.477 L 2.99 11.41 L 0 14.067 L -2.99 16.725 L 9.515 30.792 L 12.504 28.135 Z" fill="currentColor" fill-rule="nonzero"></path>
</svg>